<svg width="306" height="40" viewBox="0 0 306 40" fill="none" xmlns="http://www.w3.org/2000/svg">
<g clip-path="url(#clip0_7139_35)">
<mask id="mask0_7139_35" style="mask-type:luminance" maskUnits="userSpaceOnUse" x="0" y="0" width="306" height="40">
<path d="M305.952 0H0V40H305.952V0Z" fill="white"/>
</mask>
<g mask="url(#mask0_7139_35)">
<path d="M73.0878 8.93643V31.062H67.9745L67.615 27.613C66.2249 29.897 63.5785 31.6445 59.9911 31.6445C53.3998 31.6445 49.6328 26.6273 49.6328 19.7309C49.6328 12.8344 53.8032 8.26416 60.037 8.26416C63.3567 8.26416 66.4506 9.69655 67.7948 12.3398L68.1084 8.93643H73.0859H73.0878ZM61.2952 13.2374C57.4823 13.2374 55.1073 16.0602 55.1073 20.0002C55.1073 23.9403 57.4403 26.7191 61.2513 26.7191C65.0623 26.7191 67.529 23.9861 67.529 20.0002C67.529 16.0144 65.1082 13.2374 61.2952 13.2374Z" fill="#111111"/>
<path d="M76.5225 31.0641V8.93643H81.5458L81.9932 11.5338C83.1138 9.69847 85.3567 8.26416 88.5406 8.26416C91.9041 8.26416 94.2351 9.92191 95.4015 12.4735C96.5221 9.92 99.1227 8.26416 102.486 8.26416C107.867 8.26416 110.827 11.488 110.827 16.595V31.062H105.4V18.0292C105.4 14.8493 103.697 13.1916 101.096 13.1916C98.4955 13.1916 96.4322 14.8933 96.4322 18.522V31.062H90.9614V17.9834C90.9614 14.8933 89.3016 13.2355 86.701 13.2355C84.1005 13.2355 81.9932 14.9372 81.9932 18.5202V31.0602H76.5225V31.0641Z" fill="#111111"/>
<path d="M113.999 8.93643H119.066L119.426 12.2959C120.772 9.74239 123.686 8.26416 127.05 8.26416C133.284 8.26416 137.408 12.7886 137.408 19.7309C137.408 26.6733 133.641 31.6445 127.05 31.6445C123.73 31.6445 120.862 30.3459 119.472 28.1056V39.9983H114.001V8.93643H113.999ZM125.748 26.7191C129.605 26.7191 131.891 23.9422 131.891 20.0002C131.891 16.0583 129.605 13.2374 125.748 13.2374C121.891 13.2374 119.514 16.0144 119.514 20.0002C119.514 23.9861 121.981 26.7191 125.748 26.7191Z" fill="#111111"/>
<path d="M139.686 31.0637V0H145.112V31.0619H139.686V31.0637Z" fill="#111111"/>
<path d="M147.313 20.0003C147.313 13.0579 151.843 8.26611 158.345 8.26611C164.847 8.26611 169.196 12.7008 169.196 19.5973V21.255L152.515 21.3009C152.918 25.197 154.981 27.1679 158.613 27.1679C161.616 27.1679 163.591 26.0029 164.216 23.8983H169.285C168.343 28.7359 164.307 31.6465 158.522 31.6465C151.931 31.6465 147.312 26.8547 147.312 20.0022L147.313 20.0003ZM152.648 17.8059H163.769C163.769 14.7596 161.662 12.7447 158.389 12.7447C155.115 12.7447 153.188 14.4923 152.648 17.8059Z" fill="#111111"/>
<path d="M171.493 31.0641V8.93643H176.517L176.964 11.5338C178.086 9.69847 180.327 8.26416 183.513 8.26416C186.876 8.26416 189.207 9.92191 190.373 12.4735C191.493 9.92 194.094 8.26416 197.458 8.26416C202.838 8.26416 205.799 11.488 205.799 16.595V31.062H200.372V18.0292C200.372 14.8493 198.669 13.1916 196.067 13.1916C193.467 13.1916 191.404 14.8933 191.404 18.522V31.062H185.933V17.9834C185.933 14.8933 184.273 13.2355 181.673 13.2355C179.071 13.2355 176.964 14.9372 176.964 18.5202V31.0602H171.493V31.0641Z" fill="#111111"/>
<path d="M231.328 8.93643V31.062H226.214L225.854 27.613C224.465 29.897 221.818 31.6445 218.231 31.6445C211.64 31.6445 207.873 26.6273 207.873 19.7309C207.873 12.8344 212.044 8.26416 218.276 8.26416C221.596 8.26416 224.691 9.69655 226.034 12.3398L226.349 8.93643H231.325H231.328ZM219.533 13.2374C215.72 13.2374 213.345 16.0602 213.345 20.0002C213.345 23.9403 215.678 26.7191 219.489 26.7191C223.3 26.7191 225.767 23.9861 225.767 20.0002C225.767 16.0144 223.347 13.2374 219.533 13.2374Z" fill="#111111"/>
<path d="M248.662 13.9094H246.644C242.697 13.9094 240.232 16.0141 240.232 20.3132V31.0619H234.761V8.98202H239.917L240.232 12.2058C241.172 10.0114 243.281 8.5332 246.24 8.5332C247.004 8.5332 247.766 8.62297 248.662 8.84642V13.9075V13.9094Z" fill="#111111"/>
<path d="M250.202 31.0637V0H255.629V18.2086L264.24 8.9362H271.1L262.669 17.7158L270.92 31.0637H264.643L258.858 21.7475L255.629 25.1069V31.0637H250.202Z" fill="#111111"/>
<path d="M269.383 20.0003C269.383 13.0579 273.912 8.26611 280.414 8.26611C286.915 8.26611 291.266 12.7008 291.266 19.5973V21.255L274.583 21.3009C274.987 25.197 277.05 27.1679 280.681 27.1679C283.686 27.1679 285.659 26.0029 286.287 23.8983H291.354C290.413 28.7359 286.376 31.6465 280.592 31.6465C274.001 31.6465 269.38 26.8547 269.38 20.0022L269.383 20.0003ZM274.719 17.8059H285.841C285.841 14.7596 283.733 12.7447 280.461 12.7447C277.186 12.7447 275.259 14.4923 274.719 17.8059Z" fill="#111111"/>
<path d="M305.951 30.749C304.74 31.2857 303.304 31.5549 301.737 31.5549C297.522 31.5549 294.875 29.4045 294.875 24.1199V13.5049H291.468V8.93652H294.875V2.04004H300.302V8.93652H305.369V13.5049H300.302V23.1784C300.302 25.8215 301.469 26.7173 303.129 26.7173C303.756 26.7173 304.52 26.5835 305.325 26.3143L305.953 30.749H305.951Z" fill="#111111"/>
<path d="M22.8202 19.4977V24.49C22.8202 28.1206 25.7669 31.0637 29.402 31.0637H37.4809C38.202 31.0637 38.7852 30.4812 38.7852 29.7613V15.8422C38.7852 15.1222 38.202 14.5397 37.4809 14.5397H29.5473C28.3465 14.5397 27.375 13.5676 27.375 12.3701V1.30252C27.3731 0.584416 26.7899 0 26.069 0H17.4048C17.009 0 16.6341 0.179527 16.3855 0.488923L0.284918 20.615C0.0994344 20.8461 0 21.1325 0 21.4286V29.7613C0 30.4812 0.583221 31.0637 1.30412 31.0637H9.96829C10.3641 31.0637 10.7389 30.8842 10.9875 30.5748L20.4987 18.6861C21.2675 17.7234 22.8202 18.2678 22.8202 19.4997V19.4977Z" fill="#111111"/>
</g>
</g>
<defs>
<clipPath id="clip0_7139_35">
<rect width="306" height="40" fill="white"/>
</clipPath>
</defs>
</svg>
