<svg width="135" height="30" viewBox="0 0 135 30" fill="none" xmlns="http://www.w3.org/2000/svg">
<g clip-path="url(#clip0_408_9114)">
<path d="M56.33 21.35C53.98 26.43 49.49 29.22 43.57 29.22C35.73 29.22 29.79 23 29.79 14.63C29.79 6.26 35.77 0 43.67 0C51.16 0 57.02 6.02 57.32 14.07V16.08H36V16.75C36.78 21.03 39.71 23.87 43.57 23.87C44.84 23.87 46.17 23.75 47.45 23.19C48.67 22.65 49.81 21.72 50.79 20.16L56.34 21.36L56.33 21.35ZM36.16 11.49V11.88H50.78V11.19C50.43 9.52 49.52 8.03 48.21 6.99C46.9 5.94 45.27 5.41 43.6 5.47C41.92 5.45 40.28 6 38.94 7.03C37.6 8.06 36.62 9.52 36.17 11.17V11.22L36.16 11.27V11.49Z" fill="black"/>
<path d="M20.3601 19.6692C19.6401 20.6292 18.7301 21.4092 17.6801 21.9592C16.5701 22.5392 15.3501 22.8492 14.1001 22.8492C12.7701 22.8492 11.4701 22.4992 10.3001 21.8392C9.14008 21.1792 8.16008 20.2292 7.44008 19.0792C6.73008 17.9192 6.31008 16.5992 6.22008 15.2392C6.13008 13.8792 6.38008 12.5092 6.93008 11.2692C7.49008 10.0292 8.34008 8.94918 9.40008 8.13918C10.4701 7.31918 11.7201 6.78918 13.0301 6.60918C14.3501 6.41918 15.6901 6.57918 16.9301 7.05918C18.1201 7.52918 19.1701 8.27918 20.0201 9.24918H27.2701C26.1101 6.20918 24.0001 3.64918 21.2601 1.99918C18.3701 0.249182 14.9801 -0.380818 11.6901 0.219182C8.39008 0.809182 5.41008 2.59918 3.27008 5.25918C1.12008 7.92918 -0.0299159 11.2892 8.41229e-05 14.7592C0.0300841 18.2192 1.26008 21.5592 3.45008 24.1792C5.65008 26.7892 8.66008 28.5192 11.9701 29.0492C15.2701 29.5692 18.6601 28.8692 21.5101 27.0592C24.2101 25.3492 26.2801 22.7392 27.3801 19.6692H20.3601Z" fill="black"/>
<path d="M70.97 3.45915V3.43915C72.09 2.29915 73.43 1.39915 74.93 0.809145C76.42 0.219145 78.02 -0.0608547 79.63 0.00914531H79.65H79.67C80.16 -0.0208547 80.65 0.00914531 81.13 0.109145L80.77 6.54915H79.6C77.16 6.43915 74.76 7.11915 72.74 8.48915V8.49915C71.45 9.46915 70.44 10.7591 69.82 12.2391C69.08 14.0191 68.66 15.9091 68.57 17.8291V19.6791V19.6991V19.7191V19.7391V19.7591V19.7791V19.7991V19.8191V19.8391V19.8591V19.8791V19.8991V19.9191V19.9391V19.9591V19.9791V19.9991V20.0191V20.0391V20.0591V20.0791V20.0991V20.1191V20.1391V20.1591V20.1791V20.1991V20.2191V20.2391V20.2591V20.2791V20.2991V20.3191V20.3391V20.3591V20.3791V20.3991V20.4191V20.4391V20.4591V20.4791V20.4991V20.5191V20.5391V20.5591V20.5791V20.5991V20.6191V20.6391V20.6591V20.6791C68.51 22.1391 68.12 23.5591 67.45 24.8491C66.77 26.1391 65.82 27.2591 64.65 28.1391C63.6 28.8891 62.37 29.3291 61.09 29.4091V9.73915C61.05 8.15915 61.37 6.59915 62.04 5.17915C62.71 3.75915 63.71 2.50915 64.95 1.53915C66.02 0.749145 67.29 0.289145 68.61 0.209145V5.40915L69.35 5.58915C69.76 4.78915 70.32 4.06915 70.98 3.45915H70.97Z" fill="black"/>
<path d="M128.54 12.64C130.67 13.24 132.23 14.19 133.26 15.46C134.28 16.72 134.8 18.34 134.78 20.32C134.78 23.09 133.75 25.3 131.91 26.82C130.06 28.35 127.35 29.23 123.96 29.23C119.96 29.23 117.42 28.15 115.82 26.86C114.42 25.73 113.7 24.41 113.34 23.43L119.86 22.01C120.3 22.76 120.93 23.38 121.69 23.81C122.52 24.29 123.48 24.51 124.43 24.44C125.93 24.44 127.01 23.96 127.71 23.26C128.41 22.56 128.71 21.67 128.71 20.89C128.71 20.11 128.49 19.47 128.02 18.93C127.56 18.4 126.9 18.04 126.06 17.81L120.53 16.26C118.2 15.62 116.48 14.65 115.34 13.38C114.21 12.12 113.63 10.53 113.63 8.59C113.63 6 114.63 3.86 116.37 2.37C118.11 0.88 120.62 0 123.67 0C128.61 0 132.36 2.2 133.94 5.91L128.04 7.18C127.66 6.41 127.08 5.76 126.36 5.3C125.55 4.78 124.61 4.53 123.66 4.57C122.56 4.57 121.62 4.86 120.94 5.41C120.25 5.97 119.86 6.77 119.86 7.72C119.86 8.56 120.17 9.28 120.78 9.86C121.38 10.43 122.25 10.84 123.35 11.13L128.53 12.62L128.54 12.64Z" fill="black"/>
<path d="M106.7 4.27C103.98 1.53 100.29 0 96.44 0C93.58 0 90.77 0.85 88.38 2.46C86 4.06 84.14 6.34 83.04 9.01C81.94 11.68 81.65 14.62 82.21 17.46C82.77 20.29 84.16 22.9 86.18 24.94C88.21 26.98 90.8 28.37 93.61 28.94C94.55 29.13 95.49 29.22 96.44 29.22C98.34 29.22 100.23 28.84 102 28.11C104.65 27 106.91 25.13 108.51 22.73C110.1 20.32 110.96 17.5 110.96 14.61C110.96 10.73 109.43 7.01 106.7 4.27ZM102.22 20.42C100.69 21.96 98.61 22.83 96.44 22.83C94.83 22.83 93.25 22.35 91.9 21.44C90.56 20.54 89.51 19.25 88.9 17.75C88.28 16.25 88.12 14.6 88.43 13C88.75 11.41 89.52 9.94 90.67 8.79C91.81 7.64 93.26 6.86 94.85 6.54C96.44 6.23 98.08 6.39 99.57 7.01C101.07 7.63 102.34 8.69 103.24 10.04C104.14 11.39 104.61 12.98 104.61 14.61C104.61 16.79 103.75 18.88 102.22 20.42Z" fill="black"/>
</g>
<defs>
<clipPath id="clip0_408_9114">
<rect width="134.78" height="29.22" fill="white"/>
</clipPath>
</defs>
</svg>
