<svg width="83" height="48" viewBox="0 0 83 48" fill="none" xmlns="http://www.w3.org/2000/svg">
<path d="M9.61767 29.8299C8.83752 29.8299 8.16882 29.607 7.47226 29.2727C6.80357 28.9383 6.24632 28.3811 5.91197 27.7124C5.46617 27.0437 5.24327 26.2635 5.13182 25.4555C5.13182 24.6754 5.24327 23.8952 5.57762 23.1987C5.91197 22.5021 6.35777 21.8613 6.91502 21.3876C8.14096 20.496 9.72912 20.2731 11.178 20.8304C11.8467 21.0533 12.5154 21.6105 12.989 22.1678H17.8092C17.1405 20.1617 15.8031 18.4621 14.0199 17.3476C12.2367 16.2331 10.2028 15.8987 8.16882 16.2331C6.13487 16.6789 4.24022 17.6819 2.98641 19.3537C0.283761 22.725 0.283761 27.6845 3.09786 30.9444C4.43526 32.5047 6.24632 33.6471 8.28027 33.9814C10.3142 34.3158 12.4318 33.87 14.1314 32.7555C15.9424 31.641 17.1684 29.9414 17.8371 27.9353H13.2119C12.7661 28.4925 12.2089 28.9383 11.6516 29.2727C10.9829 29.607 10.2864 29.8299 9.61767 29.8299Z" fill="#111111"/>
<path d="M27.522 16.0996C22.674 16.0996 18.9683 19.9446 18.9683 25.0992C18.9683 30.2537 22.5625 34.0987 27.4106 34.0987C31.1163 34.0987 33.9304 32.2877 35.3792 28.9163L31.6735 28.1362C30.559 30.1701 28.9709 30.393 27.522 30.393C25.3766 30.393 23.7049 28.8327 23.2591 26.353V26.2415H35.9643V24.7927C35.7136 19.8332 32.1193 16.0996 27.522 16.0996ZM23.2312 23.2045V23.0931C23.4541 22.2015 24.0114 21.282 24.7915 20.7248C25.5717 20.1675 26.4911 19.8332 27.3827 19.8332C28.2743 19.8332 29.3052 20.0561 29.9739 20.7248C30.7541 21.282 31.1999 22.1736 31.4228 23.0931V23.2045H23.2312Z" fill="#111111"/>
<path d="M43.0671 18.2385C42.6213 18.5729 42.287 19.0186 42.0641 19.5759V16.2045C41.1725 16.2045 40.253 16.5389 39.4729 17.0961C37.9126 18.3221 36.9931 20.2446 37.1046 22.1671V34.0922C37.9962 34.0922 38.9156 33.7579 39.5843 33.3121C41.0332 32.1976 41.9526 30.498 42.0641 28.7148V27.0152C42.0641 25.9007 42.3984 24.7583 42.7328 23.7553C43.0671 22.8637 43.6244 22.195 44.4324 21.6099C45.5469 20.8297 47.0236 20.3839 48.361 20.4954H49.2526L49.4755 16.2324C49.1411 16.121 48.6953 16.121 48.361 16.121C46.327 15.9816 44.4045 16.7897 43.0671 18.2385Z" fill="#111111"/>
<path d="M59.4974 16.1523C57.6864 16.1523 56.0146 16.7096 54.5379 17.6012C53.0891 18.6042 51.9467 19.9695 51.278 21.6412C49.9406 25.0126 50.6093 28.8297 53.2005 31.4209C56.6833 34.9037 62.2001 34.9037 65.6829 31.5324C66.1287 31.0866 66.463 30.6408 66.7974 30.0835C69.1657 26.4893 68.7199 21.7527 65.6829 18.7435C64.1226 17.1833 61.8657 16.1523 59.4974 16.1523ZM59.4974 29.8885C58.6058 29.8885 57.6864 29.6656 56.9062 29.1084C56.1261 28.5511 55.5688 27.8824 55.2066 26.963C54.5379 25.1519 54.8723 23.1458 56.2097 21.7806C58.0207 19.9695 60.9184 19.9695 62.7295 21.7806C62.9524 22.0034 63.1753 22.2263 63.3982 22.5607C64.6241 24.4832 64.4012 26.9351 62.8409 28.5233C61.9772 29.3034 60.7512 29.8885 59.4974 29.8885Z" fill="#111111"/>
<path d="M78.8022 23.664L75.7652 22.7724C74.5392 22.438 73.8427 21.8808 73.8427 20.9613C73.8427 19.9583 74.6228 19.2617 75.8766 19.2617C76.4339 19.2617 76.8797 19.3732 77.3255 19.7075C77.7713 20.0419 78.1056 20.3762 78.3285 20.9335L82.2571 20.0419C81.3655 17.5621 78.8858 16.1133 75.8488 16.1133C72.1431 16.1133 69.6633 18.2587 69.6633 21.5186C69.6633 23.9983 71.1122 25.5586 73.9263 26.3388L77.1862 27.2304C78.0778 27.4533 78.635 28.0105 78.635 28.7907C78.635 29.5708 77.9663 30.7132 76.2667 30.7132C75.7095 30.7132 75.2637 30.6017 74.8179 30.3788C74.3721 30.1559 74.0377 29.7101 73.7034 29.2643L69.4404 30.1559C69.7748 31.3819 71.2515 34.0845 76.0717 34.0845C80.2232 34.0845 82.8144 31.9391 82.8144 28.4563C82.7308 26.0323 81.3934 24.3327 78.8022 23.664Z" fill="#111111"/>
</svg>
