<svg width="108" height="24" viewBox="0 0 108 24" fill="none" xmlns="http://www.w3.org/2000/svg">
<g clip-path="url(#clip0_3545_21898)">
<path d="M26.0625 14.491L21.8839 14.4643C22.3393 13.3393 23.2232 12.4286 24.5893 12.4286C25.5536 12.4286 26.0893 13.0982 26.0893 13.9821C26.0893 14.1696 26.0625 14.491 26.0625 14.491ZM24.6696 8.86605C19.9821 8.83926 16.4732 12.5625 16.4464 17.4911C16.4464 20.8393 18.8303 23.7053 23.6786 23.7321C26.8928 23.7321 29.4107 21.9107 29.4107 21.9107L28.2053 18.3482C28.2053 18.3482 26.0625 19.7678 23.9732 19.7678C22.2053 19.7678 21.1875 18.8303 21.1875 17.2232L30.1339 17.25C30.4553 16.366 30.6161 15.4285 30.6696 14.4643C30.7232 11.1696 28.6875 8.89284 24.6696 8.86605Z" fill="#111111"/>
<path d="M42.1607 8.94641C40.2054 8.94641 38.2232 10.125 37.4197 11.3839H37.3661C37.5 10.9286 37.634 10.4464 37.7411 9.99105L37.875 9.26784L33.2679 9.24105L30.4554 23.4375L35.2232 23.4643L36.4554 17.1964C36.8572 15.1339 38.4643 13.2857 40.3393 13.2857C41.1965 13.2857 41.5982 13.6607 41.5982 14.4911C41.5982 14.7589 41.5715 15.0536 41.5179 15.3214L39.884 23.4643L44.6518 23.4911L46.4197 14.5714C46.5268 14.0625 46.6072 13.5268 46.6072 12.9911C46.6072 10.0178 44.5982 8.94641 42.1607 8.94641Z" fill="#111111"/>
<path d="M54.1607 19.9018C52.7947 19.9018 51.9375 18.9375 51.9375 17.3839C51.9375 14.5982 53.8929 13.0179 55.5 13.0179C57.0536 13.0179 57.6964 14.1964 57.6964 15.5357C57.6964 18.1875 55.6875 19.9018 54.1607 19.9018ZM59.9732 3.80359L58.8214 9.61609C58.7679 9.88395 58.7411 10.2589 58.7411 10.2589H58.6875C57.8839 9.29466 56.3036 8.97323 55.0982 8.97323C50.8929 8.97323 47.1161 12.4554 47.0893 17.7054C47.0893 21.4018 49.0982 23.8125 52.5804 23.8125C54.1875 23.8125 55.7143 23.0625 56.6786 21.75H56.7322C56.7322 21.75 56.6518 22.0982 56.5714 22.5536L56.3839 23.4911L60.8572 23.5179L64.7679 3.83037L59.9732 3.80359Z" fill="#111111"/>
<path d="M70.9821 19.9286C69.4553 19.9286 68.3571 18.9643 68.3839 17.3036C68.3839 14.7053 70.5 13.0178 72.375 13.0178C73.875 13.0178 74.9732 14.0357 74.9464 15.7232C74.9196 18.3214 72.8839 19.9286 70.9821 19.9286ZM72.4018 9.05356C67.9553 9.02677 63.5357 12.5357 63.5357 17.5178C63.5357 21.4018 66.5893 23.8928 70.875 23.9196C75.2946 23.9464 79.7411 20.4911 79.7411 15.4553C79.7679 11.5714 76.6875 9.05356 72.4018 9.05356Z" fill="#111111"/>
<path d="M85.2857 13.6875C85.2857 13.1518 86.1429 12.9375 86.8393 12.9375C88.9554 12.9375 90.1339 13.9821 90.1339 13.9821L92.1964 10.741C92.1964 10.741 90.2679 9.10712 86.8661 9.10712C83.8393 9.10712 80.8929 10.9285 80.8929 13.6875C80.8661 17.866 86.4911 18.1071 86.4911 19.3928C86.4911 19.9018 85.6875 20.116 84.9375 20.116C83.625 20.0893 82.3661 19.6339 81.3482 18.8303L78.9643 21.8839C80.6786 23.1964 82.7679 23.9464 84.9107 23.9732C88.4732 23.9732 90.9107 22.1785 90.9107 19.4196C90.9375 15.1071 85.2857 14.7857 85.2857 13.6875Z" fill="#111111"/>
<path d="M99.1875 20.0357C97.6607 20.0357 96.5625 19.0714 96.5893 17.4107C96.5893 14.8125 98.7054 13.125 100.58 13.125C102.08 13.125 103.179 14.1429 103.152 15.8304C103.152 18.4018 101.089 20.0357 99.1875 20.0357ZM100.634 9.13394C96.1875 9.10716 91.7679 12.6161 91.7679 17.5982C91.7411 21.4822 94.8214 23.9732 99.1072 24C103.527 24.0268 107.973 20.5714 107.973 15.5357C108 11.6786 104.92 9.16073 100.634 9.13394Z" fill="#111111"/>
<path d="M24 5.27679L18.2679 0L17.7054 2.8125L10.0446 2.78571C6.32143 2.78571 2.35714 5.03571 2.33036 9.26786C2.35714 12.8839 5.33036 14.4643 7.5 15.6161C8.70536 16.2589 9.75 16.8214 9.75 17.4643C9.75 18.9375 7.71429 18.9375 7.63393 18.9375L1.04464 18.9107L0 23.9732L7.55357 24C11.8661 24 15.2411 21.1607 15.2411 17.4911C15.2679 13.8482 12.2946 12.3214 10.125 11.1964C8.86607 10.5536 7.79464 9.99107 7.79464 9.32143C7.79464 8.22321 9.26786 7.875 9.96429 7.875L16.7143 7.90179L16.1786 10.6339L24 5.27679Z" fill="#111111"/>
</g>
<defs>
<clipPath id="clip0_3545_21898">
<rect width="107.973" height="24" fill="white"/>
</clipPath>
</defs>
</svg>
