<svg width="53" height="12" viewBox="0 0 53 12" fill="none" xmlns="http://www.w3.org/2000/svg">
<g clip-path="url(#clip0_3512_16436)">
<mask id="mask0_3512_16436" style="mask-type:luminance" maskUnits="userSpaceOnUse" x="-94" y="-25" width="185" height="139">
<path d="M-93.2585 113.178H90.9628V-24.9883H-93.2585V113.178Z" fill="white"/>
</mask>
<g mask="url(#mask0_3512_16436)">
<path d="M51.9071 3.96929L51.7576 5.76405H51.0246C49.8544 5.76405 49.2462 6.70214 49.2462 7.60114V11.6547H47.172V3.96929H49.1366L49.1813 4.92854C49.5934 4.27074 50.3147 3.96929 51.2042 3.96929H51.9071ZM37.5276 11.6546H35.4516V7.59177C35.4516 6.74091 35.3781 5.67001 34.1813 5.67001C33.0288 5.67001 32.5696 6.5018 32.5696 7.47036V11.6546H30.4943V3.96922H32.4184L32.4624 4.95173C32.8748 4.29393 33.6429 3.78174 34.7759 3.78174C36.8674 3.78174 37.5276 5.27505 37.5276 6.82907V11.6546ZM29.5891 9.85935L29.444 11.6081C28.9462 11.7416 28.5043 11.7895 27.9695 11.7895C26.0136 11.7895 25.4463 10.8926 25.4463 9.0899V1.80199H27.522V3.96938H29.5875L29.444 5.76391H27.522V8.93382C27.522 9.65721 27.7204 10.048 28.4624 10.048C28.785 10.048 29.1439 10.0091 29.5891 9.85935ZM24.7647 3.96929L24.604 5.76405H24.0399C22.872 5.76405 22.2912 6.70097 22.2912 7.60114V11.6547H20.2152V3.96929H22.1807L22.2216 4.92854C22.6361 4.27074 23.3574 3.96929 24.2481 3.96929H24.7647ZM10.8477 10.8032C9.4398 11.5564 8.03348 11.9909 6.17591 11.9369C2.73223 11.8318 0.247803 9.69345 0.247803 6.0816C0.247803 2.48556 2.75619 0.187913 6.17755 0.133949C7.91183 0.107432 9.46376 0.547518 10.6768 1.61796L9.21557 3.09614C8.46496 2.45625 7.36056 2.08223 6.04077 2.14201C3.88757 2.24226 2.59011 3.80697 2.5615 5.95832C2.53336 8.28923 3.9627 9.89559 6.19708 9.9542C7.24845 9.98049 8.00161 9.83929 8.65337 9.54668V7.16413H6.33107L6.48784 5.21004H10.8477V10.8032ZM46.245 8.54235H40.554C40.7161 9.5244 41.4881 10.1152 42.4494 10.142C43.384 10.1673 43.9069 9.88493 44.5905 9.19271L45.945 10.2255C44.9825 11.411 43.8274 11.8425 42.5115 11.8425C40.1971 11.8425 38.4633 10.2243 38.4633 7.81174C38.4633 5.40175 40.1885 3.78167 42.425 3.78167C44.8899 3.78167 46.245 5.27498 46.245 7.92572V8.54235ZM44.1656 6.93553C44.1018 5.96464 43.3745 5.35081 42.3727 5.38989C41.3643 5.42803 40.6931 6.08467 40.554 6.93553H44.1656ZM18.9084 6.62203V11.6546H17.0783L17.0329 10.8968C16.4714 11.5923 15.5599 11.8426 14.6213 11.8426C13.208 11.8426 11.8726 11.1457 11.8447 9.52259C11.8026 6.9714 14.716 6.7902 16.5456 6.7902H16.9113V6.68925C16.9113 5.8456 16.353 5.38993 15.3019 5.38993C14.5473 5.38993 13.8025 5.69255 13.2517 6.20893L12.0541 4.99218C13.1415 4.11061 14.2729 3.78172 15.4782 3.78172C17.8589 3.78172 18.9084 4.88193 18.9084 6.62203ZM16.9113 8.30305H16.6226C15.6399 8.30514 13.9137 8.35353 13.9202 9.38116C13.9295 10.8289 16.9113 10.3688 16.9113 8.62288V8.30305ZM50.2879 10.7606C50.2879 10.2715 50.6571 9.9028 51.1304 9.9028C51.5979 9.9028 51.9678 10.2715 51.9678 10.7606C51.9678 11.2584 51.5979 11.6259 51.1304 11.6259C50.6571 11.6259 50.2879 11.2584 50.2879 10.7606ZM51.1304 11.7978C51.694 11.7978 52.1748 11.3601 52.1748 10.7606C52.1748 10.1673 51.694 9.73044 51.1304 9.73044C50.5617 9.73044 50.0804 10.1673 50.0804 10.7606C50.0804 11.3601 50.5617 11.7978 51.1304 11.7978ZM50.9115 10.8434H51.1197L51.4335 11.3601H51.6363L51.2974 10.8351C51.4726 10.8137 51.6063 10.7197 51.6063 10.5064C51.6063 10.2715 51.467 10.1673 51.1851 10.1673H50.7315V11.3601H50.9115V10.8434ZM50.9115 10.6897V10.321H51.1574C51.2835 10.321 51.4174 10.3482 51.4174 10.4959C51.4174 10.679 51.2807 10.6897 51.1281 10.6897H50.9115Z" fill="#111111"/>
</g>
</g>
<defs>
<clipPath id="clip0_3512_16436">
<rect width="52.1739" height="12" fill="white" transform="translate(0.097168)"/>
</clipPath>
</defs>
</svg>
