<svg width="70" height="26" viewBox="0 0 70 26" fill="none" xmlns="http://www.w3.org/2000/svg">
<g clip-path="url(#clip0_4347_137881)">
<path d="M29.1536 24.3977C27.407 24.3977 25.8497 24.061 24.4818 23.3876C23.114 22.7141 22.0302 21.7356 21.2305 20.4519C20.4519 19.1472 20.0625 17.6004 20.0625 15.8117C20.0625 13.9387 20.4413 12.2868 21.1989 10.8558C21.9565 9.42476 23.0087 8.31995 24.3556 7.54131C25.7234 6.74163 27.2912 6.3418 29.0589 6.3418C30.8898 6.3418 32.426 6.74163 33.6676 7.54131C34.9092 8.31995 35.8351 9.44581 36.4454 10.9189C37.0767 12.392 37.3819 14.1387 37.3608 16.1589H21.7987V13.2232H34.9302L33.0678 14.6121C33.0678 13.581 32.9205 12.6761 32.6259 11.8975C32.3523 11.1188 31.9104 10.498 31.3001 10.035C30.7109 9.57207 29.9638 9.34059 29.0589 9.34059C28.133 9.34059 27.3228 9.59312 26.6283 10.0982C25.9339 10.6032 25.3972 11.3398 25.0184 12.3078C24.6397 13.2758 24.4503 14.4122 24.4503 15.717C24.4503 16.8744 24.6502 17.874 25.05 18.7158C25.4709 19.5575 26.0391 20.1994 26.7546 20.6413C27.4911 21.0622 28.3013 21.2726 29.1852 21.2726C30.4058 21.2726 31.4159 20.9464 32.2155 20.2941C33.0363 19.6207 33.636 18.7789 34.0148 17.7688L37.5818 19.9153C36.5717 21.4305 35.3406 22.5563 33.8886 23.2929C32.4576 24.0294 30.8792 24.3977 29.1536 24.3977Z" fill="#111111"/>
<path d="M47.7005 24.3977C45.9538 24.3977 44.3966 24.061 43.0287 23.3876C41.6608 22.7141 40.5771 21.7356 39.7774 20.4519C38.9988 19.1472 38.6094 17.6004 38.6094 15.8117C38.6094 13.9387 38.9882 12.2868 39.7458 10.8558C40.5034 9.42476 41.5556 8.31995 42.9024 7.54131C44.2703 6.74163 45.8381 6.3418 47.6058 6.3418C49.4367 6.3418 50.9729 6.74163 52.2145 7.54131C53.4561 8.31995 54.382 9.44581 54.9923 10.9189C55.6236 12.392 55.9288 14.1387 55.9077 16.1589H40.3456V13.2232H53.4771L51.6147 14.6121C51.6147 13.581 51.4674 12.6761 51.1728 11.8975C50.8992 11.1188 50.4573 10.498 49.847 10.035C49.2578 9.57207 48.5107 9.34059 47.6058 9.34059C46.6799 9.34059 45.8697 9.59312 45.1752 10.0982C44.4808 10.6032 43.9441 11.3398 43.5653 12.3078C43.1865 13.2758 42.9971 14.4122 42.9971 15.717C42.9971 16.8744 43.1971 17.874 43.5969 18.7158C44.0178 19.5575 44.586 20.1994 45.3015 20.6413C46.038 21.0622 46.8482 21.2726 47.7321 21.2726C48.9526 21.2726 49.9628 20.9464 50.7624 20.2941C51.5832 19.6207 52.1829 18.7789 52.5617 17.7688L56.1287 19.9153C55.1186 21.4305 53.8875 22.5563 52.4355 23.2929C51.0044 24.0294 49.4261 24.3977 47.7005 24.3977Z" fill="#111111"/>
<path d="M57.3135 1.38672H61.5433V19.8529C61.5433 21.3471 61.617 22.7149 61.7643 23.9566H57.3135V1.38672Z" fill="#111111"/>
<path d="M0.444336 15.382C0.444336 9.13033 4.435 6.35225 8.81086 6.35225C12.8046 6.35225 14.4887 8.88975 14.4887 8.88975V1.39453H18.8142V19.8658C18.8142 21.382 18.8664 22.7502 18.9722 23.9702H14.4901V21.897C14.4901 21.897 12.7738 24.4117 8.81227 24.4117C4.58899 24.4117 0.444336 21.9883 0.444336 15.382ZM9.91564 21.0927C12.9792 21.0927 14.9598 18.761 14.9598 15.382C14.9598 11.8847 12.9778 9.67119 9.91564 9.67119C6.85356 9.67119 4.94472 11.7755 4.94472 15.382C4.94472 18.9885 6.93396 21.0927 9.91564 21.0927Z" fill="#111111"/>
<path d="M64.2783 19.916H68.4451V23.9565H64.2783V19.916Z" fill="#111111"/>
</g>
<defs>
<clipPath id="clip0_4347_137881">
<rect width="69" height="26" fill="white" transform="translate(0.155273)"/>
</clipPath>
</defs>
</svg>
