<svg width="82" height="18" viewBox="0 0 82 18" fill="none" xmlns="http://www.w3.org/2000/svg">
<path d="M8.64452 13.7295C7.86438 13.7295 7.19568 13.5066 6.49912 13.1722C5.83042 12.8379 5.27317 12.2806 4.93882 11.6119C4.49303 10.9432 4.27013 10.1631 4.15868 9.35506C4.15868 8.57491 4.27013 7.79477 4.60447 7.09821C4.93882 6.40165 5.38462 5.76081 5.94187 5.28715C7.16782 4.39555 8.75597 4.17265 10.2048 4.7299C10.8735 4.9528 11.5422 5.51005 12.0159 6.0673H16.8361C16.1674 4.0612 14.83 2.3616 13.0468 1.2471C11.2636 0.132603 9.22964 -0.201746 7.19568 0.132603C5.16172 0.578402 3.26708 1.58145 2.01327 3.25319C-0.689384 6.62455 -0.689384 11.5841 2.12472 14.844C3.46212 16.4043 5.27317 17.5466 7.30713 17.881C9.34109 18.2153 11.4586 17.7695 13.1582 16.655C14.9693 15.5405 16.1952 13.8409 16.8639 11.8348H12.2388C11.793 12.3921 11.2357 12.8379 10.6785 13.1722C10.0098 13.5066 9.31322 13.7295 8.64452 13.7295Z" fill="#111111"/>
<path d="M26.5489 0C21.7008 0 17.9951 3.84501 17.9951 8.99956C17.9951 14.1541 21.5894 17.9991 26.4374 17.9991C30.1431 17.9991 32.9572 16.1881 34.4061 12.8167L30.7004 12.0366C29.5859 14.0705 27.9977 14.2934 26.5489 14.2934C24.4035 14.2934 22.7317 12.7331 22.2859 10.2534V10.1419H34.9912V8.69307C34.7404 3.73356 31.1462 0 26.5489 0ZM22.2581 7.10492V6.99347C22.481 6.10187 23.0382 5.18241 23.8184 4.62516C24.5985 4.06791 25.518 3.73356 26.4096 3.73356C27.3012 3.73356 28.3321 3.95646 29.0008 4.62516C29.7809 5.18241 30.2267 6.07401 30.4496 6.99347V7.10492H22.2581Z" fill="#111111"/>
<path d="M42.0939 2.13969C41.6481 2.47403 41.3138 2.91983 41.0909 3.47708V0.105729C40.1993 0.105729 39.2798 0.440078 38.4997 0.997327C36.9394 2.22327 36.0199 4.14578 36.1314 6.06829V17.9934C37.0229 17.9934 37.9424 17.659 38.6111 17.2133C40.06 16.0988 40.9794 14.3991 41.0909 12.616V10.9163C41.0909 9.80185 41.4252 8.65949 41.7596 7.65644C42.0939 6.76485 42.6512 6.09615 43.4592 5.51104C44.5737 4.73089 46.0504 4.28509 47.3878 4.39654H48.2794L48.5023 0.133592C48.1679 0.0221422 47.7221 0.0221422 47.3878 0.0221422C45.3538 -0.11717 43.4313 0.69084 42.0939 2.13969Z" fill="#111111"/>
<path d="M58.5244 0.0518188C56.7134 0.0518188 55.0416 0.609067 53.5649 1.50066C52.1161 2.50371 50.9737 3.86897 50.305 5.54071C48.9676 8.91207 49.6363 12.7292 52.2275 15.3204C55.7103 18.8032 61.2271 18.8032 64.7099 15.4319C65.1557 14.9861 65.49 14.5403 65.8244 13.983C68.1927 10.3888 67.7469 5.65216 64.7099 2.64302C63.1496 1.08273 60.8927 0.0518188 58.5244 0.0518188ZM58.5244 13.788C57.6328 13.788 56.7134 13.5651 55.9332 13.0078C55.1531 12.4506 54.5958 11.7819 54.2336 10.8624C53.5649 9.05138 53.8993 7.04528 55.2367 5.68003C57.0477 3.86897 59.9454 3.86897 61.7565 5.68003C61.9794 5.90292 62.2023 6.12582 62.4252 6.46017C63.6511 8.38268 63.4282 10.8346 61.8679 12.4227C61.0042 13.2029 59.7782 13.788 58.5244 13.788Z" fill="#111111"/>
<path d="M77.8291 7.56506L74.7921 6.67346C73.5661 6.33911 72.8695 5.78186 72.8695 4.8624C72.8695 3.85936 73.6497 3.1628 74.9035 3.1628C75.4607 3.1628 75.9065 3.27425 76.3523 3.60859C76.7981 3.94294 77.1325 4.27729 77.3554 4.83454L81.284 3.94294C80.3924 1.46319 77.9126 0.0143433 74.8756 0.0143433C71.1699 0.0143433 68.6902 2.15975 68.6902 5.41965C68.6902 7.89941 70.139 9.4597 72.9531 10.2398L76.213 11.1314C77.1046 11.3543 77.6619 11.9116 77.6619 12.6917C77.6619 13.4719 76.9932 14.6142 75.2936 14.6142C74.7363 14.6142 74.2905 14.5028 73.8447 14.2799C73.3989 14.057 73.0646 13.6112 72.7302 13.1654L68.4673 14.057C68.8016 15.2829 70.2783 17.9856 75.0985 17.9856C79.25 17.9856 81.8412 15.8402 81.8412 12.3574C81.7577 9.93336 80.4203 8.23375 77.8291 7.56506Z" fill="#111111"/>
</svg>
