<svg width="105" height="16" viewBox="0 0 105 16" fill="none" xmlns="http://www.w3.org/2000/svg">
<path d="M14.6449 4.72501H12.2536C12.318 4.34979 12.5504 4.13978 13.0208 3.90177L13.4604 3.67776C14.2473 3.27454 14.6673 2.81811 14.6673 2.07328C14.6673 1.60565 14.4853 1.23604 14.1241 0.970022C13.7628 0.704009 13.3372 0.572403 12.8388 0.572403C12.4532 0.567869 12.0747 0.675883 11.7495 0.883218C11.4219 1.08483 11.1783 1.34524 11.0271 1.67006L11.7187 2.36449C11.9875 1.82126 12.3768 1.55525 12.8892 1.55525C13.3232 1.55525 13.5892 1.77926 13.5892 2.09008C13.5892 2.35049 13.4604 2.5661 12.962 2.81811L12.6792 2.95532C12.066 3.26613 11.6403 3.62175 11.3939 4.02497C11.1475 4.42819 11.0271 4.93502 11.0271 5.54825V5.71626H14.6449V4.72501Z" fill="#111111"/>
<path d="M14.3259 6.85742H10.3665L8.38678 10.2848H12.3462L14.3259 13.715L16.3056 10.2848L14.3259 6.85742Z" fill="#111111"/>
<path d="M8.72826 12.5726C6.20814 12.5726 4.15564 10.5201 4.15564 7.99999C4.15564 5.47987 6.20814 3.42737 8.72826 3.42737L10.2935 0.154008C9.77809 0.0515075 9.25381 -7.64014e-05 8.72826 8.49324e-08C4.30965 8.49324e-08 0.728271 3.58138 0.728271 7.99999C0.728271 12.4186 4.30965 16 8.72826 16C10.4216 16.0032 12.0716 15.4656 13.4381 14.4655L11.7076 11.4638C10.8797 12.1789 9.82226 12.5725 8.72826 12.5726Z" fill="#111111"/>
<path d="M31.4087 1.81698C31.7755 1.07374 32.8353 1.07374 33.2022 1.81699L34.4239 4.29249C34.5696 4.58763 34.8511 4.7922 35.1768 4.83953L37.9087 5.2365C38.7289 5.35568 39.0564 6.36365 38.4629 6.94219L36.4861 8.8691C36.2504 9.09884 36.1429 9.42984 36.1985 9.75423L36.6652 12.4751C36.8053 13.292 35.9479 13.9149 35.2142 13.5293L32.7708 12.2446C32.4794 12.0915 32.1314 12.0915 31.8401 12.2446L29.3966 13.5293C28.663 13.9149 27.8056 13.292 27.9457 12.4751L28.4123 9.75423C28.468 9.42984 28.3604 9.09884 28.1247 8.8691L26.1479 6.94219C25.5544 6.36365 25.8819 5.35568 26.7021 5.2365L29.434 4.83953C29.7597 4.7922 30.0413 4.58763 30.1869 4.29249L31.4087 1.81698Z" fill="#111111"/>
<path d="M47.4087 1.81698C47.7755 1.07374 48.8353 1.07374 49.2022 1.81699L50.4239 4.29249C50.5696 4.58763 50.8511 4.7922 51.1768 4.83953L53.9087 5.2365C54.7289 5.35568 55.0564 6.36365 54.4629 6.94219L52.4861 8.8691C52.2504 9.09884 52.1429 9.42984 52.1985 9.75423L52.6652 12.4751C52.8053 13.292 51.9479 13.9149 51.2142 13.5293L48.7708 12.2446C48.4794 12.0915 48.1314 12.0915 47.8401 12.2446L45.3966 13.5293C44.663 13.9149 43.8056 13.292 43.9457 12.4751L44.4123 9.75423C44.468 9.42984 44.3604 9.09884 44.1247 8.8691L42.1479 6.94219C41.5544 6.36365 41.8819 5.35568 42.7021 5.2365L45.434 4.83953C45.7597 4.7922 46.0413 4.58763 46.1869 4.29249L47.4087 1.81698Z" fill="#111111"/>
<path d="M63.4087 1.81698C63.7755 1.07374 64.8353 1.07374 65.2022 1.81699L66.4239 4.29249C66.5696 4.58763 66.8511 4.7922 67.1768 4.83953L69.9087 5.2365C70.7289 5.35568 71.0564 6.36365 70.4629 6.94219L68.4861 8.8691C68.2504 9.09884 68.1429 9.42984 68.1985 9.75423L68.6652 12.4751C68.8053 13.292 67.9479 13.9149 67.2142 13.5293L64.7708 12.2446C64.4794 12.0915 64.1314 12.0915 63.8401 12.2446L61.3966 13.5293C60.663 13.9149 59.8056 13.292 59.9457 12.4751L60.4123 9.75423C60.468 9.42984 60.3604 9.09884 60.1247 8.8691L58.1479 6.94219C57.5544 6.36365 57.8819 5.35568 58.7021 5.2365L61.434 4.83953C61.7597 4.7922 62.0413 4.58763 62.1869 4.29249L63.4087 1.81698Z" fill="#111111"/>
<path d="M79.4087 1.81698C79.7755 1.07374 80.8353 1.07374 81.2022 1.81699L82.4239 4.29249C82.5696 4.58763 82.8511 4.7922 83.1768 4.83953L85.9087 5.2365C86.7289 5.35568 87.0564 6.36365 86.4629 6.94219L84.4861 8.8691C84.2504 9.09884 84.1429 9.42984 84.1985 9.75423L84.6652 12.4751C84.8053 13.292 83.9479 13.9149 83.2142 13.5293L80.7708 12.2446C80.4794 12.0915 80.1314 12.0915 79.8401 12.2446L77.3966 13.5293C76.663 13.9149 75.8056 13.292 75.9457 12.4751L76.4123 9.75423C76.468 9.42984 76.3604 9.09884 76.1247 8.8691L74.1479 6.94219C73.5544 6.36365 73.8819 5.35568 74.7021 5.2365L77.434 4.83953C77.7597 4.7922 78.0413 4.58763 78.1869 4.29249L79.4087 1.81698Z" fill="#111111"/>
<mask id="mask0_3512_16395" style="mask-type:alpha" maskUnits="userSpaceOnUse" x="88" y="0" width="11" height="16">
<rect x="88.521" width="10.25" height="16" fill="#D9D9D9"/>
</mask>
<g mask="url(#mask0_3512_16395)">
<path d="M95.4087 1.81698C95.7755 1.07374 96.8353 1.07374 97.2022 1.81699L98.4239 4.29249C98.5696 4.58763 98.8511 4.7922 99.1768 4.83953L101.909 5.2365C102.729 5.35568 103.056 6.36365 102.463 6.94219L100.486 8.8691C100.25 9.09884 100.143 9.42984 100.199 9.75423L100.665 12.4751C100.805 13.292 99.9479 13.9149 99.2142 13.5293L96.7708 12.2446C96.4794 12.0915 96.1314 12.0915 95.8401 12.2446L93.3966 13.5293C92.663 13.9149 91.8056 13.292 91.9457 12.4751L92.4123 9.75423C92.468 9.42984 92.3604 9.09884 92.1247 8.8691L90.1479 6.94219C89.5544 6.36365 89.8819 5.35568 90.7021 5.2365L93.434 4.83953C93.7597 4.7922 94.0413 4.58763 94.1869 4.29249L95.4087 1.81698Z" fill="#111111"/>
</g>
<path d="M96.7538 2.03827L97.9755 4.51377C98.194 4.95649 98.6164 5.26334 99.1049 5.33433L101.837 5.7313C102.247 5.79089 102.411 6.29488 102.114 6.58415L100.137 8.51106C99.7836 8.85566 99.6223 9.35216 99.7057 9.83876L100.172 12.5596C100.242 12.9681 99.8137 13.2795 99.4469 13.0867L97.0034 11.8021C96.5664 11.5723 96.0444 11.5723 95.6074 11.8021L93.1639 13.0867C92.7971 13.2795 92.3684 12.9681 92.4385 12.5596L92.9051 9.83875C92.9886 9.35216 92.8273 8.85566 92.4737 8.51106L90.4969 6.58415C90.2002 6.29488 90.3639 5.79089 90.774 5.7313L93.5059 5.33433C93.9945 5.26334 94.4168 4.95649 94.6353 4.51377L95.8571 2.03827C96.0405 1.66665 96.5704 1.66664 96.7538 2.03827Z" stroke="#111111"/>
</svg>
