<svg width="53" height="12" viewBox="0 0 53 12" fill="none" xmlns="http://www.w3.org/2000/svg">
<g clip-path="url(#clip0_3803_17143)">
<mask id="mask0_3803_17143" style="mask-type:luminance" maskUnits="userSpaceOnUse" x="-94" y="-25" width="185" height="139">
<path d="M-93.3557 113.178H90.8656V-24.9883H-93.3557V113.178Z" fill="white"/>
</mask>
<g mask="url(#mask0_3803_17143)">
<path d="M51.81 3.96929L51.6605 5.76405H50.9275C49.7573 5.76405 49.149 6.70214 49.149 7.60114V11.6547H47.0749V3.96929H49.0395L49.0842 4.92854C49.4963 4.27074 50.2176 3.96929 51.1071 3.96929H51.81ZM37.4304 11.6546H35.3545V7.59177C35.3545 6.74091 35.281 5.67001 34.0842 5.67001C32.9317 5.67001 32.4725 6.5018 32.4725 7.47036V11.6546H30.3972V3.96922H32.3213L32.3653 4.95173C32.7777 4.29393 33.5458 3.78174 34.6788 3.78174C36.7703 3.78174 37.4304 5.27505 37.4304 6.82907V11.6546ZM29.492 9.85935L29.3469 11.6081C28.8491 11.7416 28.4072 11.7895 27.8724 11.7895C25.9165 11.7895 25.3492 10.8926 25.3492 9.0899V1.80199H27.4249V3.96938H29.4904L29.3469 5.76391H27.4249V8.93382C27.4249 9.65721 27.6233 10.048 28.3653 10.048C28.6879 10.048 29.0468 10.0091 29.492 9.85935ZM24.6676 3.96929L24.5069 5.76405H23.9428C22.7749 5.76405 22.1941 6.70097 22.1941 7.60114V11.6547H20.1181V3.96929H22.0836L22.1245 4.92854C22.539 4.27074 23.2603 3.96929 24.151 3.96929H24.6676ZM10.7506 10.8032C9.3427 11.5564 7.93637 11.9909 6.07881 11.9369C2.63512 11.8318 0.150696 9.69345 0.150696 6.0816C0.150696 2.48556 2.65909 0.187913 6.08044 0.133949C7.81473 0.107432 9.36665 0.547518 10.5797 1.61796L9.11847 3.09614C8.36786 2.45625 7.26346 2.08223 5.94367 2.14201C3.79046 2.24226 2.493 3.80697 2.46439 5.95832C2.43625 8.28923 3.86559 9.89559 6.09998 9.9542C7.15134 9.98049 7.90451 9.83929 8.55626 9.54668V7.16413H6.23396L6.39073 5.21004H10.7506V10.8032ZM46.1479 8.54235H40.4569C40.619 9.5244 41.391 10.1152 42.3523 10.142C43.2869 10.1673 43.8098 9.88493 44.4934 9.19271L45.8479 10.2255C44.8854 11.411 43.7303 11.8425 42.4144 11.8425C40.1 11.8425 38.3662 10.2243 38.3662 7.81174C38.3662 5.40175 40.0914 3.78167 42.3279 3.78167C44.7928 3.78167 46.1479 5.27498 46.1479 7.92572V8.54235ZM44.0685 6.93553C44.0047 5.96464 43.2774 5.35081 42.2756 5.38989C41.2672 5.42803 40.596 6.08467 40.4569 6.93553H44.0685ZM18.8113 6.62203V11.6546H16.9812L16.9358 10.8968C16.3743 11.5923 15.4627 11.8426 14.5242 11.8426C13.1109 11.8426 11.7755 11.1457 11.7476 9.52259C11.7055 6.9714 14.6189 6.7902 16.4485 6.7902H16.8142V6.68925C16.8142 5.8456 16.2559 5.38993 15.2048 5.38993C14.4502 5.38993 13.7054 5.69255 13.1546 6.20893L11.957 4.99218C13.0444 4.11061 14.1758 3.78172 15.3811 3.78172C17.7618 3.78172 18.8113 4.88193 18.8113 6.62203ZM16.8142 8.30305H16.5255C15.5428 8.30514 13.8166 8.35353 13.8231 9.38116C13.8324 10.8289 16.8142 10.3688 16.8142 8.62288V8.30305ZM50.1908 10.7606C50.1908 10.2715 50.5599 9.9028 51.0333 9.9028C51.5008 9.9028 51.8707 10.2715 51.8707 10.7606C51.8707 11.2584 51.5008 11.6259 51.0333 11.6259C50.5599 11.6259 50.1908 11.2584 50.1908 10.7606ZM51.0333 11.7978C51.5969 11.7978 52.0777 11.3601 52.0777 10.7606C52.0777 10.1673 51.5969 9.73044 51.0333 9.73044C50.4646 9.73044 49.9833 10.1673 49.9833 10.7606C49.9833 11.3601 50.4646 11.7978 51.0333 11.7978ZM50.8144 10.8434H51.0226L51.3364 11.3601H51.5392L51.2003 10.8351C51.3755 10.8137 51.5092 10.7197 51.5092 10.5064C51.5092 10.2715 51.3699 10.1673 51.088 10.1673H50.6344V11.3601H50.8144V10.8434ZM50.8144 10.6897V10.321H51.0603C51.1864 10.321 51.3203 10.3482 51.3203 10.4959C51.3203 10.679 51.1836 10.6897 51.031 10.6897H50.8144Z" fill="#FBFBFB"/>
</g>
</g>
<defs>
<clipPath id="clip0_3803_17143">
<rect width="52.1739" height="12" fill="white"/>
</clipPath>
</defs>
</svg>
