<svg width="57" height="14" viewBox="0 0 57 14" fill="none" xmlns="http://www.w3.org/2000/svg">
<path d="M36.694 12.6147C36.3654 12.2059 36.186 11.6954 36.186 11.1689V7.3667C36.186 4.66828 34.9274 3.12305 32.7016 3.12305C29.7379 3.12305 29.1642 4.75467 28.3751 6.14282C28.3369 6.20991 28.2524 6.23379 28.1847 6.19714L28.0199 6.10781C27.9493 6.06952 27.9237 5.98018 27.9635 5.90983L28.1886 5.51223C28.3307 5.26549 28.4068 4.98537 28.4068 4.69969V4.12604C28.4068 3.75593 28.1099 3.45585 27.7437 3.45585H24.5164C24.0304 3.45585 23.7684 4.03245 24.0854 4.40485L24.5556 4.95756C25.0296 5.51485 25.2903 6.22529 25.2903 6.96027V10.9071C25.2903 11.345 25.1977 11.7779 25.0186 12.1765L24.645 13.009C24.4743 13.3892 24.7492 13.8209 25.1627 13.8209H29.1946C29.6748 13.8209 29.9387 13.2567 29.634 12.8817L29.3076 12.4802C28.9747 12.0701 28.7924 11.5564 28.7924 11.0259V8.84812C28.7924 8.08794 28.9725 7.33332 29.3497 6.67557C29.8075 5.8771 30.4053 5.46903 31.1536 5.46903C32.1606 5.46903 32.7016 6.19387 32.7016 7.50316V11.0406C32.7016 11.468 32.6136 11.8905 32.4426 12.2815L32.1224 13.0142C31.9566 13.3941 32.2315 13.8209 32.6424 13.8209H36.4693C36.9482 13.8209 37.2124 13.2593 36.9103 12.884L36.6937 12.6147H36.694Z" fill="#111111"/>
<path d="M43.8817 12.3042C43.7528 12.33 43.6265 12.348 43.5155 12.3506C42.4754 12.3506 41.9749 11.689 41.9749 10.328V4.91966H43.8687C44.0879 4.91966 44.2657 4.74001 44.2657 4.51847V3.86333C44.2657 3.64179 44.0879 3.46213 43.8687 3.46213H41.4451C41.3771 3.46213 41.3221 3.4065 41.3221 3.33778V3.1542C41.3221 3.08581 41.3765 3.03018 41.4442 3.02985H41.6902C41.8473 3.03018 41.9749 2.90157 41.9749 2.74286V1.31216C41.9749 1.03925 41.756 0.818359 41.4862 0.818359H40.0923C39.8385 0.818359 39.6137 0.984598 39.5383 1.2297C39.3774 1.76637 38.9901 3.46246 37.7305 3.46246H37.3559C37.1377 3.46246 36.9602 3.64179 36.9602 3.86366V4.51879C36.9602 4.74066 37.1377 4.91999 37.3559 4.91999H38.5109V10.4651C38.5109 12.7211 39.6468 13.9659 41.7055 13.9659C42.7329 13.9659 43.6644 13.5866 44.2288 12.903C44.4483 12.636 44.2197 12.2374 43.8817 12.3045V12.3042Z" fill="#111111"/>
<path d="M23.6446 11.8957C23.031 12.0076 22.6159 11.5216 22.6159 10.7592V7.0895C22.6159 4.47223 20.9746 3.06641 17.7865 3.06641C14.9313 3.06641 12.9814 4.17575 12.9762 5.85122C12.9749 6.15196 13.0866 6.4468 13.2511 6.73052C13.5156 7.14087 13.9935 7.41608 14.5411 7.41608C15.3745 7.41608 16.0503 6.78058 16.0503 5.99684C16.0477 5.19314 15.3762 4.78573 15.1725 4.70915C15.3172 4.58447 15.9425 4.09754 16.8656 4.09754C18.3331 4.09754 19.1189 5.22161 19.1189 6.97169V7.6674C18.0174 7.6674 16.7821 7.77899 15.913 7.99334C13.7866 8.46293 12.666 9.68582 12.666 11.2091C12.666 12.9271 14.0188 14.0005 16.163 14.0005C17.6511 14.0005 18.8877 13.4743 19.4673 12.5947C19.8335 13.3375 20.6453 13.8058 21.6892 13.8058C23.0394 13.8058 23.7466 13.0937 23.97 12.2475C24.0276 12.0066 23.8476 11.8554 23.6446 11.8954V11.8957ZM19.1189 11.0727C19.004 11.8918 18.4438 12.3806 17.632 12.3806C16.7426 12.3806 16.1439 11.7756 16.1439 10.8187C16.1439 10.0769 16.4719 9.42829 17.1878 9.1161C17.6702 8.90077 18.4231 8.78329 19.1189 8.76399V11.073V11.0727Z" fill="#111111"/>
<path d="M55.9426 11.8957C55.329 12.0076 54.9139 11.5216 54.9139 10.7592V7.0895C54.9139 4.47223 53.2726 3.06641 50.0845 3.06641C47.2293 3.06641 45.2794 4.17575 45.2742 5.85122C45.2729 6.15196 45.3846 6.4468 45.5491 6.73052C45.8137 7.14087 46.2916 7.41608 46.8391 7.41608C47.6726 7.41608 48.3483 6.78058 48.3483 5.99684C48.3457 5.19314 47.6742 4.78573 47.4705 4.70915C47.6153 4.58447 48.2405 4.09754 49.1636 4.09754C50.6311 4.09754 51.4169 5.22161 51.4169 6.97169V7.6674C50.3154 7.6674 49.0801 7.77899 48.211 7.99334C46.0847 8.46293 44.964 9.68582 44.964 11.2091C44.964 12.9271 46.3168 14.0005 48.461 14.0005C49.9492 14.0005 51.1857 13.4743 51.7653 12.5947C52.1316 13.3375 52.9433 13.8058 53.9872 13.8058C55.3374 13.8058 56.0446 13.0937 56.268 12.2475C56.3257 12.0066 56.1456 11.8554 55.9426 11.8954V11.8957ZM51.4169 11.0727C51.302 11.8918 50.7418 12.3806 49.9301 12.3806C49.0406 12.3806 48.4419 11.7756 48.4419 10.8187C48.4419 10.0769 48.7699 9.42829 49.4858 9.1161C49.9683 8.90077 50.7211 8.78329 51.4169 8.76399V11.073V11.0727Z" fill="#111111"/>
<path d="M13.2149 0H11.4625C11.0853 0 10.8596 0.423776 11.0668 0.741853L11.367 1.20294C11.6234 1.59693 11.6736 2.09237 11.5013 2.53055L8.35761 10.5221C8.21288 10.9069 8.0662 11.1707 7.99982 11.2355C7.9642 11.2702 7.90462 11.2806 7.85832 11.2456L7.69254 11.1124C7.63976 11.0725 7.643 11.0146 7.69124 10.9599C7.78352 10.8362 7.84084 10.687 7.87289 10.5512C7.91142 10.3882 7.89847 10.2171 7.83954 10.0603L5.1773 2.94778C5.00147 2.47852 5.00827 1.95919 5.1964 1.49451L5.48069 0.792249C5.63385 0.414286 5.35862 0 4.95452 0H0.66456C0.0865853 0 -0.214868 0.695058 0.176924 1.1244L0.449883 1.42382C0.951442 1.97391 1.34777 2.61269 1.61911 3.3084L5.44151 13.4044C5.54157 13.6606 5.78603 13.8288 6.05867 13.8288H8.17532C8.4473 13.8288 8.69177 13.661 8.79182 13.4057L13.7433 0.786686C13.8913 0.409378 13.6164 0.00032756 13.2149 0.00032756V0Z" fill="#111111"/>
</svg>
