<svg width="104" height="16" viewBox="0 0 104 16" fill="none" xmlns="http://www.w3.org/2000/svg">
<path d="M13.9166 4.72501H11.5253C11.5897 4.34979 11.8221 4.13978 12.2925 3.90177L12.7321 3.67776C13.519 3.27454 13.939 2.81811 13.939 2.07328C13.939 1.60565 13.757 1.23604 13.3958 0.970022C13.0346 0.704009 12.6089 0.572403 12.1105 0.572403C11.7249 0.567869 11.3464 0.675883 11.0213 0.883218C10.6936 1.08483 10.45 1.34524 10.2988 1.67006L10.9905 2.36449C11.2593 1.82126 11.6485 1.55525 12.1609 1.55525C12.5949 1.55525 12.861 1.77926 12.861 2.09008C12.861 2.35049 12.7321 2.5661 12.2337 2.81811L11.9509 2.95532C11.3377 3.26613 10.9121 3.62175 10.6656 4.02497C10.4192 4.42819 10.2988 4.93502 10.2988 5.54825V5.71626H13.9166V4.72501Z" fill="#FBFBFB"/>
<path d="M13.5976 6.85742H9.63824L7.65854 10.2848H11.6179L13.5976 13.715L15.5773 10.2848L13.5976 6.85742Z" fill="#FBFBFB"/>
<path d="M7.99999 12.5726C5.47987 12.5726 3.42737 10.5201 3.42737 7.99999C3.42737 5.47987 5.47987 3.42737 7.99999 3.42737L9.56527 0.154008C9.04982 0.0515075 8.52554 -7.64014e-05 7.99999 8.49324e-08C3.58138 8.49324e-08 0 3.58138 0 7.99999C0 12.4186 3.58138 16 7.99999 16C9.69329 16.0032 11.3434 15.4656 12.7098 14.4655L10.9793 11.4638C10.1514 12.1789 9.09399 12.5725 7.99999 12.5726Z" fill="#FBFBFB"/>
<path d="M30.6804 1.81698C31.0472 1.07374 32.1071 1.07374 32.4739 1.81699L33.6956 4.29249C33.8413 4.58763 34.1228 4.7922 34.4486 4.83953L37.1804 5.2365C38.0007 5.35568 38.3282 6.36365 37.7347 6.94219L35.7578 8.8691C35.5222 9.09884 35.4146 9.42984 35.4702 9.75423L35.9369 12.4751C36.077 13.292 35.2196 13.9149 34.486 13.5293L32.0425 12.2446C31.7512 12.0915 31.4031 12.0915 31.1118 12.2446L28.6683 13.5293C27.9347 13.9149 27.0773 13.292 27.2174 12.4751L27.6841 9.75423C27.7397 9.42984 27.6321 9.09884 27.3965 8.8691L25.4196 6.94219C24.8261 6.36365 25.1536 5.35568 25.9739 5.2365L28.7057 4.83953C29.0315 4.7922 29.313 4.58763 29.4587 4.29249L30.6804 1.81698Z" fill="#FBFBFB"/>
<path d="M46.6804 1.81698C47.0472 1.07374 48.1071 1.07374 48.4739 1.81699L49.6956 4.29249C49.8413 4.58763 50.1228 4.7922 50.4486 4.83953L53.1804 5.2365C54.0007 5.35568 54.3282 6.36365 53.7347 6.94219L51.7578 8.8691C51.5222 9.09884 51.4146 9.42984 51.4702 9.75423L51.9369 12.4751C52.077 13.292 51.2196 13.9149 50.486 13.5293L48.0425 12.2446C47.7512 12.0915 47.4031 12.0915 47.1118 12.2446L44.6683 13.5293C43.9347 13.9149 43.0773 13.292 43.2174 12.4751L43.6841 9.75423C43.7397 9.42984 43.6321 9.09884 43.3965 8.8691L41.4196 6.94219C40.8261 6.36365 41.1536 5.35568 41.9739 5.2365L44.7057 4.83953C45.0315 4.7922 45.313 4.58763 45.4587 4.29249L46.6804 1.81698Z" fill="#FBFBFB"/>
<path d="M62.6804 1.81698C63.0472 1.07374 64.1071 1.07374 64.4739 1.81699L65.6956 4.29249C65.8413 4.58763 66.1228 4.7922 66.4486 4.83953L69.1804 5.2365C70.0007 5.35568 70.3282 6.36365 69.7347 6.94219L67.7578 8.8691C67.5222 9.09884 67.4146 9.42984 67.4702 9.75423L67.9369 12.4751C68.077 13.292 67.2196 13.9149 66.486 13.5293L64.0425 12.2446C63.7512 12.0915 63.4031 12.0915 63.1118 12.2446L60.6683 13.5293C59.9347 13.9149 59.0773 13.292 59.2174 12.4751L59.6841 9.75423C59.7397 9.42984 59.6321 9.09884 59.3965 8.8691L57.4196 6.94219C56.8261 6.36365 57.1536 5.35568 57.9739 5.2365L60.7057 4.83953C61.0315 4.7922 61.313 4.58763 61.4587 4.29249L62.6804 1.81698Z" fill="#FBFBFB"/>
<path d="M78.6804 1.81698C79.0472 1.07374 80.1071 1.07374 80.4739 1.81699L81.6956 4.29249C81.8413 4.58763 82.1228 4.7922 82.4486 4.83953L85.1804 5.2365C86.0007 5.35568 86.3282 6.36365 85.7347 6.94219L83.7578 8.8691C83.5222 9.09884 83.4146 9.42984 83.4702 9.75423L83.9369 12.4751C84.077 13.292 83.2196 13.9149 82.486 13.5293L80.0425 12.2446C79.7512 12.0915 79.4031 12.0915 79.1118 12.2446L76.6683 13.5293C75.9347 13.9149 75.0773 13.292 75.2174 12.4751L75.6841 9.75423C75.7397 9.42984 75.6321 9.09884 75.3965 8.8691L73.4196 6.94219C72.8261 6.36365 73.1536 5.35568 73.9739 5.2365L76.7057 4.83953C77.0315 4.7922 77.313 4.58763 77.4587 4.29249L78.6804 1.81698Z" fill="#FBFBFB"/>
<mask id="mask0_3803_17106" style="mask-type:alpha" maskUnits="userSpaceOnUse" x="87" y="0" width="12" height="16">
<rect x="87.7927" width="10.25" height="16" fill="#D9D9D9"/>
</mask>
<g mask="url(#mask0_3803_17106)">
<path d="M94.6804 1.81698C95.0472 1.07374 96.107 1.07374 96.4738 1.81699L97.6956 4.29249C97.8412 4.58763 98.1228 4.7922 98.4485 4.83953L101.18 5.2365C102.001 5.35568 102.328 6.36365 101.735 6.94219L99.7578 8.8691C99.5221 9.09884 99.4145 9.42984 99.4702 9.75423L99.9368 12.4751C100.077 13.292 99.2195 13.9149 98.4859 13.5293L96.0424 12.2446C95.7511 12.0915 95.4031 12.0915 95.1117 12.2446L92.6683 13.5293C91.9346 13.9149 91.0772 13.292 91.2173 12.4751L91.684 9.75423C91.7396 9.42984 91.6321 9.09884 91.3964 8.8691L89.4196 6.94219C88.8261 6.36365 89.1536 5.35568 89.9738 5.2365L92.7057 4.83953C93.0314 4.7922 93.313 4.58763 93.4586 4.29249L94.6804 1.81698Z" fill="#FBFBFB"/>
</g>
<path d="M96.0255 2.03827L97.2473 4.51377C97.4657 4.95649 97.8881 5.26334 98.3767 5.33433L101.109 5.7313C101.519 5.79089 101.682 6.29488 101.386 6.58415L99.4088 8.51106C99.0553 8.85566 98.894 9.35216 98.9774 9.83876L99.4441 12.5596C99.5142 12.9681 99.0854 13.2795 98.7186 13.0867L96.2752 11.8021C95.8382 11.5723 95.3161 11.5723 94.8791 11.8021L92.4357 13.0867C92.0689 13.2795 91.6401 12.9681 91.7102 12.5596L92.1769 9.83875C92.2603 9.35216 92.099 8.85566 91.7455 8.51106L89.7687 6.58415C89.4719 6.29488 89.6356 5.79089 90.0458 5.7313L92.7776 5.33433C93.2662 5.26334 93.6886 4.95649 93.907 4.51377L95.1288 2.03827C95.3122 1.66665 95.8421 1.66664 96.0255 2.03827Z" stroke="#FBFBFB"/>
</svg>
