<svg width="107" height="18" viewBox="0 0 107 18" fill="none" xmlns="http://www.w3.org/2000/svg">
<path d="M0.577148 6.61719H8.04523H12.5811V2.11719L0.577148 6.61719Z" fill="#FBFBFB"/>
<path d="M12.5812 2.11835V18L18.254 0L12.5812 2.11835Z" fill="#FBFBFB"/>
<path d="M12.5809 6.61719H8.04498L12.5809 17.9988V6.61719Z" fill="#FBFBFB"/>
<path d="M0.577148 6.61719L9.20614 9.5374L8.04523 6.61719H0.577148Z" fill="#FBFBFB"/>
<path d="M0.577148 6.61719H8.04523H12.5811V2.11719" stroke="#111111" stroke-width="0.9"/>
<path d="M12.5812 1.96289V18.0013" stroke="#111111" stroke-width="0.9"/>
<path d="M8.04498 6.61719H12.5809V17.9988" stroke="#111111" stroke-width="0.9"/>
<path d="M0.577148 6.61719H7.59715L8.92015 9.89902" stroke="#111111" stroke-width="0.9"/>
<path d="M33.3573 2.81698C33.7241 2.07374 34.784 2.07374 35.1508 2.81699L36.3725 5.29249C36.5182 5.58763 36.7997 5.7922 37.1254 5.83953L39.8573 6.2365C40.6775 6.35568 41.005 7.36365 40.4115 7.94219L38.4347 9.8691C38.199 10.0988 38.0915 10.4298 38.1471 10.7542L38.6138 13.4751C38.7539 14.292 37.8965 14.9149 37.1628 14.5293L34.7194 13.2446C34.428 13.0915 34.08 13.0915 33.7887 13.2446L31.3452 14.5293C30.6116 14.9149 29.7542 14.292 29.8943 13.4751L30.3609 10.7542C30.4166 10.4298 30.309 10.0988 30.0733 9.8691L28.0965 7.94219C27.503 7.36365 27.8305 6.35568 28.6507 6.2365L31.3826 5.83953C31.7083 5.7922 31.9899 5.58763 32.1356 5.29249L33.3573 2.81698Z" fill="#FBFBFB"/>
<path d="M49.3573 2.81698C49.7241 2.07374 50.784 2.07374 51.1508 2.81699L52.3725 5.29249C52.5182 5.58763 52.7997 5.7922 53.1254 5.83953L55.8573 6.2365C56.6775 6.35568 57.005 7.36365 56.4115 7.94219L54.4347 9.8691C54.199 10.0988 54.0915 10.4298 54.1471 10.7542L54.6138 13.4751C54.7539 14.292 53.8965 14.9149 53.1628 14.5293L50.7194 13.2446C50.428 13.0915 50.08 13.0915 49.7887 13.2446L47.3452 14.5293C46.6116 14.9149 45.7542 14.292 45.8943 13.4751L46.3609 10.7542C46.4166 10.4298 46.309 10.0988 46.0733 9.8691L44.0965 7.94219C43.503 7.36365 43.8305 6.35568 44.6507 6.2365L47.3826 5.83953C47.7083 5.7922 47.9899 5.58763 48.1356 5.29249L49.3573 2.81698Z" fill="#FBFBFB"/>
<path d="M65.3573 2.81698C65.7241 2.07374 66.784 2.07374 67.1508 2.81699L68.3725 5.29249C68.5182 5.58763 68.7997 5.7922 69.1254 5.83953L71.8573 6.2365C72.6775 6.35568 73.005 7.36365 72.4115 7.94219L70.4347 9.8691C70.199 10.0988 70.0915 10.4298 70.1471 10.7542L70.6138 13.4751C70.7539 14.292 69.8965 14.9149 69.1628 14.5293L66.7194 13.2446C66.428 13.0915 66.08 13.0915 65.7887 13.2446L63.3452 14.5293C62.6116 14.9149 61.7542 14.292 61.8943 13.4751L62.3609 10.7542C62.4166 10.4298 62.309 10.0988 62.0733 9.8691L60.0965 7.94219C59.503 7.36365 59.8305 6.35568 60.6507 6.2365L63.3826 5.83953C63.7083 5.7922 63.9899 5.58763 64.1356 5.29249L65.3573 2.81698Z" fill="#FBFBFB"/>
<path d="M81.3573 2.81698C81.7241 2.07374 82.784 2.07374 83.1508 2.81699L84.3725 5.29249C84.5182 5.58763 84.7997 5.7922 85.1254 5.83953L87.8573 6.2365C88.6775 6.35568 89.005 7.36365 88.4115 7.94219L86.4347 9.8691C86.199 10.0988 86.0915 10.4298 86.1471 10.7542L86.6138 13.4751C86.7539 14.292 85.8965 14.9149 85.1628 14.5293L82.7194 13.2446C82.428 13.0915 82.08 13.0915 81.7887 13.2446L79.3452 14.5293C78.6116 14.9149 77.7542 14.292 77.8943 13.4751L78.3609 10.7542C78.4166 10.4298 78.309 10.0988 78.0733 9.8691L76.0965 7.94219C75.503 7.36365 75.8305 6.35568 76.6507 6.2365L79.3826 5.83953C79.7083 5.7922 79.9899 5.58763 80.1356 5.29249L81.3573 2.81698Z" fill="#FBFBFB"/>
<mask id="mask0_3803_17121" style="mask-type:alpha" maskUnits="userSpaceOnUse" x="90" y="1" width="12" height="16">
<rect x="90.2542" y="1" width="11.5" height="16" fill="#D9D9D9"/>
</mask>
<g mask="url(#mask0_3803_17121)">
<path d="M97.3572 2.81698C97.724 2.07374 98.7839 2.07374 99.1507 2.81699L100.372 5.29249C100.518 5.58763 100.8 5.7922 101.125 5.83953L103.857 6.2365C104.677 6.35568 105.005 7.36365 104.411 7.94219L102.435 9.8691C102.199 10.0988 102.091 10.4298 102.147 10.7542L102.614 13.4751C102.754 14.292 101.896 14.9149 101.163 14.5293L98.7193 13.2446C98.428 13.0915 98.08 13.0915 97.7886 13.2446L95.3452 14.5293C94.6115 14.9149 93.7541 14.292 93.8942 13.4751L94.3609 10.7542C94.4165 10.4298 94.309 10.0988 94.0733 9.8691L92.0965 7.94219C91.5029 7.36365 91.8305 6.35568 92.6507 6.2365L95.3826 5.83953C95.7083 5.7922 95.9898 5.58763 96.1355 5.29249L97.3572 2.81698Z" fill="#FBFBFB"/>
</g>
<path d="M98.8172 3.03827L100.039 5.51377C100.257 5.95649 100.68 6.26334 101.168 6.33433L103.9 6.7313C104.31 6.79089 104.474 7.29488 104.177 7.58415L102.201 9.51106C101.847 9.85566 101.686 10.3522 101.769 10.8388L102.236 13.5596C102.306 13.9681 101.877 14.2795 101.51 14.0867L99.0668 12.8021C98.6299 12.5723 98.1078 12.5723 97.6708 12.8021L95.2274 14.0867C94.8605 14.2795 94.4318 13.9681 94.5019 13.5596L94.9685 10.8388C95.052 10.3522 94.8907 9.85566 94.5371 9.51106L92.5603 7.58415C92.2636 7.29488 92.4273 6.79089 92.8374 6.7313L95.5693 6.33433C96.0579 6.26334 96.4802 5.95649 96.6987 5.51377L97.9205 3.03827C98.1039 2.66665 98.6338 2.66664 98.8172 3.03827Z" stroke="#FBFBFB"/>
</svg>
