<svg width="105" height="14" viewBox="0 0 105 14" fill="none" xmlns="http://www.w3.org/2000/svg">
<g clip-path="url(#clip0_3796_17063)">
<path d="M10.5378 11.9306C9.35278 11.2495 7.89503 11.2495 6.71001 11.9306L3.97472 13.5028C2.25445 14.4916 0.108398 13.2499 0.108398 11.2657L0.108399 2.73267C0.108399 0.748475 2.25445 -0.49329 3.97472 0.49551L6.71001 2.06776C7.89507 2.74892 9.35282 2.74892 10.5378 2.06776L13.2731 0.495526C14.9934 -0.493275 17.1395 0.74849 17.1395 2.73269V11.2657C17.1395 13.2499 14.9934 14.4917 13.2731 13.5028L10.5378 11.9306Z" fill="#111111"/>
<path d="M102.488 7.55239C102.483 6.85018 102.33 6.31588 102.03 5.94951C101.73 5.57804 101.31 5.39231 100.77 5.39231C100.424 5.39231 100.099 5.50174 99.7935 5.72053C99.4882 5.93936 99.2413 6.23702 99.053 6.61358C98.8699 6.9901 98.7781 7.40228 98.7781 7.85009V12.5137H97.1755V7.55239C97.1755 6.85018 97.0227 6.31588 96.7174 5.94951C96.4172 5.57804 95.9948 5.39231 95.4504 5.39231C95.1043 5.39231 94.776 5.50174 94.4657 5.72053C94.1604 5.93936 93.9135 6.23702 93.7253 6.61358C93.5421 6.9901 93.4507 7.40228 93.4507 7.85009V12.5137H91.8174V4.06422H93.4507V4.89621C94.0967 4.22452 94.8678 3.88867 95.7634 3.88867C96.8064 3.88867 97.5877 4.34919 98.1065 5.2702C98.4425 4.82749 98.8469 4.48659 99.3202 4.24742C99.7985 4.00826 100.312 3.88867 100.862 3.88867C101.447 3.88867 101.989 4.03369 102.488 4.32372C102.986 4.6087 103.381 5.00051 103.671 5.49918C103.966 5.99785 104.114 6.54996 104.114 7.15549V12.5137H102.495L102.488 7.55239Z" fill="#111111"/>
<path d="M86.9616 12.5137C86.229 12.5137 85.5776 12.3559 85.0078 12.0405C84.4428 11.725 84.0026 11.2823 83.6872 10.7123C83.3768 10.1374 83.2217 9.48093 83.2217 8.74309V3.88867H84.8247V8.53702C84.8247 9.04079 84.911 9.48093 85.0841 9.85749C85.2622 10.229 85.5115 10.5165 85.8319 10.72C86.1527 10.9185 86.5265 11.0177 86.9542 11.0177C87.3867 11.0177 87.7631 10.9185 88.0836 10.72C88.4095 10.5165 88.6587 10.229 88.8318 9.85749C89.0099 9.48093 89.099 9.04079 89.099 8.53702V3.88867H90.702V8.74309C90.702 9.48603 90.5464 10.1424 90.2361 10.7123C89.9257 11.2823 89.4855 11.725 88.9158 12.0405C88.3507 12.3559 87.6997 12.5137 86.9616 12.5137Z" fill="#111111"/>
<path d="M81.0077 12.3549C80.4123 12.3549 79.8885 12.2328 79.4354 11.9886C78.9824 11.7392 78.6316 11.3881 78.3819 10.9352C78.1327 10.4773 78.0082 9.94297 78.0082 9.33233V5.4093H76.6113V3.91325H78.0082V1.94531L79.5883 1.95295V3.91325H82.0764V5.4093H79.5883V9.29419C79.5883 9.78776 79.7256 10.1669 80.0001 10.4315C80.2751 10.6961 80.6667 10.8284 81.1757 10.8284H82.0764V12.3549H81.0077Z" fill="#111111"/>
<path d="M74.7177 7.78903C74.7177 7.00029 74.5423 6.40494 74.1911 6.00294C73.845 5.59586 73.3441 5.39231 72.6877 5.39231C72.2805 5.39231 71.9041 5.5068 71.558 5.73582C71.2169 5.9597 70.9447 6.26502 70.7413 6.65173C70.5426 7.03848 70.4434 7.46081 70.4434 7.91877V12.5137H68.833V4.06422H70.3139V5.01069C70.6394 4.63413 71.0108 4.35429 71.4281 4.17108C71.8504 3.98282 72.3287 3.88867 72.8631 3.88867C73.4993 3.88867 74.0818 4.04641 74.6111 4.36191C75.14 4.67738 75.5573 5.1099 75.863 5.65948C76.1682 6.20902 76.3207 6.81965 76.3207 7.49134V12.5137H74.7177V7.78903Z" fill="#111111"/>
<path d="M60.7598 8.94921C60.8415 9.38173 61.0041 9.76334 61.2487 10.0941C61.4979 10.4198 61.8083 10.6717 62.1797 10.8497C62.551 11.0279 62.9633 11.1169 63.4163 11.1169C63.9658 11.1169 64.4212 11.0202 64.7825 10.8268C65.1488 10.6335 65.4592 10.3154 65.7135 9.87278H67.4083C67.0011 10.8396 66.4668 11.552 65.8053 12.0099C65.1488 12.4679 64.3524 12.6969 63.4163 12.6969C62.6121 12.6969 61.8822 12.5061 61.2257 12.1244C60.5642 11.7377 60.0478 11.2085 59.676 10.5368C59.2995 9.85497 59.1113 9.10694 59.1113 8.29276C59.1113 7.46843 59.2972 6.72297 59.6686 6.05638C60.045 5.3745 60.5642 4.84277 61.2257 4.46112C61.8822 4.0795 62.6121 3.88867 63.4163 3.88867C64.2303 3.88867 64.968 4.08459 65.6295 4.4764C66.2964 4.87839 66.8028 5.41778 67.1485 6.09453C67.4946 6.76622 67.6677 7.51168 67.6677 8.33095C67.6677 8.48868 67.6548 8.69476 67.6296 8.94921H60.7598ZM63.4163 5.4305C62.7649 5.4305 62.2049 5.61114 61.7371 5.97242C61.2689 6.33369 60.9558 6.82222 60.7983 7.43791H66.0188C65.8613 6.82222 65.5482 6.33369 65.08 5.97242C64.6172 5.61114 64.0623 5.4305 63.4163 5.4305Z" fill="#111111"/>
<path d="M56.5594 7.55239C56.5543 6.85018 56.4015 6.31588 56.1013 5.94951C55.8011 5.57804 55.3814 5.39231 54.8421 5.39231C54.4959 5.39231 54.1701 5.50174 53.8648 5.72053C53.5595 5.93936 53.313 6.23702 53.1243 6.61358C52.9412 6.9901 52.8498 7.40228 52.8498 7.85009V12.5137H51.2468V7.55239C51.2468 6.85018 51.0943 6.31588 50.7891 5.94951C50.4888 5.57804 50.0665 5.39231 49.5217 5.39231C49.176 5.39231 48.8477 5.50174 48.5374 5.72053C48.2317 5.93936 47.9852 6.23702 47.7969 6.61358C47.6138 6.9901 47.522 7.40228 47.522 7.85009V12.5137H45.8887V4.06422H47.522V4.89621C48.1683 4.22452 48.9391 3.88867 49.8347 3.88867C50.8781 3.88867 51.659 4.34919 52.1782 5.2702C52.5138 4.82749 52.9186 4.48659 53.3915 4.24742C53.8698 4.00826 54.3839 3.88867 54.9334 3.88867C55.5187 3.88867 56.0604 4.03369 56.5594 4.32372C57.0579 4.6087 57.4523 5.00051 57.7424 5.49918C58.0376 5.99785 58.185 6.54996 58.185 7.15549V12.5137H56.5668L56.5594 7.55239Z" fill="#111111"/>
<path d="M44.1505 10.5444C43.7636 11.2212 43.2242 11.7479 42.5324 12.1244C41.8452 12.5061 41.0643 12.6969 40.1889 12.6969C39.3851 12.6969 38.6447 12.5035 37.968 12.1168C37.2963 11.7301 36.762 11.206 36.3651 10.5444C35.9733 9.87783 35.7773 9.14509 35.7773 8.34619C35.7773 7.471 35.9682 6.70007 36.3498 6.03347C36.7365 5.36178 37.2785 4.83515 37.9756 4.45349C38.6575 4.07693 39.4158 3.88867 40.25 3.88867C41.0845 3.88867 41.8429 4.0795 42.5246 4.46112C43.2219 4.83768 43.7636 5.36178 44.1505 6.03347C44.5371 6.71026 44.7308 7.46334 44.7308 8.29276C44.7308 9.11713 44.5371 9.86768 44.1505 10.5444ZM40.25 5.39231C39.7262 5.39231 39.24 5.51956 38.7923 5.77397C38.3445 6.02838 37.9883 6.37441 37.7237 6.81203C37.4642 7.24964 37.3345 7.73051 37.3345 8.25461C37.3345 9.05351 37.627 9.74301 38.2122 10.3231C38.8178 10.9286 39.5099 11.2314 40.2885 11.2314C40.8123 11.2314 41.2957 11.0991 41.7387 10.8345C42.1812 10.5648 42.5324 10.2061 42.7918 9.75829C43.0515 9.30539 43.181 8.81691 43.181 8.29276C43.181 7.76356 43.0488 7.27761 42.7844 6.83493C42.5246 6.39222 42.1684 6.04109 41.7157 5.78159C41.2677 5.52208 40.7793 5.39231 40.25 5.39231Z" fill="#111111"/>
<path d="M33.2263 7.55239C33.2212 6.85018 33.0685 6.31588 32.7683 5.94951C32.4681 5.57804 32.0483 5.39231 31.5089 5.39231C31.1629 5.39231 30.8372 5.50174 30.5319 5.72053C30.2266 5.93936 29.9798 6.23702 29.7915 6.61358C29.6084 6.9901 29.5168 7.40228 29.5168 7.85009V12.5137H27.9139V7.55239C27.9139 6.85018 27.7612 6.31588 27.4559 5.94951C27.1557 5.57804 26.7333 5.39231 26.1889 5.39231C25.8429 5.39231 25.5146 5.50174 25.2042 5.72053C24.899 5.93936 24.6522 6.23702 24.4639 6.61358C24.2807 6.9901 24.1891 7.40228 24.1891 7.85009V12.5137H22.5557V4.06422H24.1891V4.89621C24.8353 4.22452 25.6062 3.88867 26.5018 3.88867C27.545 3.88867 28.326 4.34919 28.8451 5.2702C29.1809 4.82749 29.5855 4.48659 30.0587 4.24742C30.537 4.00826 31.0509 3.88867 31.6005 3.88867C32.1857 3.88867 32.7276 4.03369 33.2263 4.32372C33.7249 4.6087 34.1193 5.00051 34.4093 5.49918C34.7045 5.99785 34.8521 6.54996 34.8521 7.15549V12.5137H33.2339L33.2263 7.55239Z" fill="#111111"/>
</g>
<defs>
<clipPath id="clip0_3796_17063">
<rect width="104.222" height="14" fill="white"/>
</clipPath>
</defs>
</svg>
