<svg width="91" height="18" viewBox="0 0 91 18" fill="none" xmlns="http://www.w3.org/2000/svg">
<path d="M18.4755 3.72895C16.0445 3.74523 13.419 5.53607 13.4676 8.58049C13.4028 11.6575 15.9959 13.4647 18.3458 13.4321C20.7768 13.4158 23.4023 11.6087 23.3375 8.58049C23.4023 5.48721 20.8093 3.69639 18.4755 3.72895ZM18.8806 12.7809C17.4221 12.8297 15.9796 10.5016 16.0283 7.52229C16.0283 5.55237 16.8224 4.36389 17.9407 4.36389C19.3992 4.31505 20.8255 6.64312 20.793 9.62248C20.793 11.5924 19.9827 12.7809 18.8806 12.7809Z" fill="#111111"/>
<path d="M70.6122 10.6484C69.7533 11.3972 69.04 11.8205 67.9703 11.8205C66.2202 11.8531 64.6804 10.2902 64.7128 7.9621V7.84813H70.8549L70.9203 7.78297V7.13178C70.9203 4.96648 69.3481 3.74545 67.2575 3.71289C66.4635 3.72917 65.6689 3.90826 64.8913 4.26643C64.1132 4.62459 63.4652 5.17812 62.9627 5.91077C62.4603 6.65962 62.2011 7.58765 62.2011 8.6947C62.1522 11.267 64.1944 13.4486 67.0955 13.3997C68.6836 13.416 70.2393 12.081 71.0175 11.0065L70.6122 10.6484ZM66.9495 4.34783C67.8572 4.34783 68.3108 5.06417 68.3108 6.46429C68.3108 6.72478 68.2943 6.98526 68.2619 7.22945H64.7452C64.9237 5.30838 65.7985 4.34783 66.9495 4.34783Z" fill="#111111"/>
<path d="M42.7374 0L38.9612 2.14901C38.9612 2.14901 40.1281 2.36066 40.1281 3.37004V12.829H38.783V13.2197H43.9691V12.829H42.7374V0Z" fill="#111111"/>
<path d="M59.8184 8.56347H57.1765C58.3758 8.0588 60.2561 7.13082 60.9365 6.12143C61.1314 5.8772 61.2445 5.5516 61.2445 5.20971C61.2445 4.39571 60.5801 3.72821 59.7701 3.72821C58.9595 3.72821 58.2951 4.39571 58.2951 5.20971C58.2951 5.9098 58.7811 6.49588 59.4296 6.65871C59.0079 6.95175 58.4895 7.24479 57.8739 7.53783C57.339 7.79831 56.8366 8.00994 56.4797 8.15646V0L52.6873 2.14901C52.6873 2.14901 53.8542 2.36066 53.8542 3.37004V12.829H51.6017V6.33306C51.6017 4.44455 49.9972 3.72821 48.3118 3.72821C46.2373 3.72821 45.2973 4.36315 44.6653 4.94924C44.0818 5.53535 44.0818 6.47958 44.6653 7.04941C45.2487 7.63549 46.1887 7.63549 46.7559 7.04941C47.3394 6.46333 47.3394 5.51905 46.7559 4.94924C46.5615 4.75388 46.3345 4.63992 46.0914 4.57479C46.3507 4.39571 46.7235 4.24919 47.2259 4.24919C48.1983 4.24919 48.9924 4.94924 48.9924 6.04002C48.9924 7.375 48.2956 7.78201 47.0639 8.14021C44.9084 8.77515 43.6929 9.78454 43.6929 11.2823C43.6929 12.6499 44.7463 13.4313 46.1076 13.4313C46.7397 13.415 47.307 13.2848 47.777 13.008C48.2631 12.7313 48.7169 12.3568 49.1869 11.8847V13.2197H56.4797V8.85656C56.6098 8.8077 56.7718 8.74259 56.9662 8.66118L59.7701 13.2034H63.2379V12.8126H62.5899L59.8184 8.56347ZM47.5663 12.1126C46.8046 12.1126 46.2211 11.5428 46.2211 10.6148C46.2211 9.75198 46.7397 9.05188 47.6797 8.61232C47.6959 8.61232 47.6959 8.59607 47.7121 8.59607C47.7445 8.57977 47.7607 8.57977 47.7932 8.56347C48.3604 8.31928 48.7331 8.02624 48.9924 7.70065V11.4451C48.6683 11.7056 48.1821 12.1126 47.5663 12.1126Z" fill="#111111"/>
<path d="M12.6089 12.1293C11.993 12.1293 11.6365 11.7386 11.6365 10.9734V4.5752H13.9703V3.92398H11.6365V0.912109L8.23315 3.77746C8.23315 3.77746 9.02726 4.4938 9.02726 6.47999V11.0711C9.02726 12.5363 9.82137 13.4154 11.28 13.4154C11.7824 13.3992 12.301 13.2527 12.8196 12.9759C13.3544 12.6991 13.8244 12.3898 14.2458 12.0316L13.9217 11.5758C13.3706 11.9502 13.0303 12.1293 12.6089 12.1293Z" fill="#111111"/>
<path d="M26.6598 5.94131L26.676 4.15049V3.75977L23.0457 4.28074V4.68775L24.2775 4.50866L24.2937 12.828H22.9485V13.2187H28.9126V12.828H26.9191V7.78102C26.9191 5.64827 30.0956 6.08789 30.0956 6.08789V3.93885C30.0956 3.93885 29.9336 3.93885 29.0098 3.93885C28.086 3.93885 27.1622 4.81799 26.6598 5.94131Z" fill="#111111"/>
<path d="M6.1747 8.07537C5.75334 7.81488 5.2185 7.55439 4.58645 7.27766C4.01922 7.03342 3.58164 6.85435 3.32233 6.70783C3.04682 6.57756 2.83613 6.39849 2.65786 6.20316C2.47959 6.00778 2.39856 5.77985 2.39856 5.50306C2.39856 4.7379 3.09544 4.33089 3.93818 4.33089C5.60746 4.33089 7.40641 7.2125 7.40641 7.2125V4.4937C6.56365 4.11924 5.54263 3.72852 4.50541 3.72852C2.13925 3.72852 0.453764 4.88442 0.486177 6.54501C0.486177 7.60325 1.10203 8.35216 1.94477 8.88938C2.36614 9.14986 2.90096 9.42665 3.51681 9.68714C4.58645 10.143 5.12126 10.4035 5.47781 10.8268C5.65609 11.0221 5.75334 11.2664 5.75334 11.5431C5.75334 12.3409 5.08885 12.813 4.18128 12.813C2.22028 12.813 0.51859 9.32899 0.51859 9.32899V12.585C1.5234 13.0735 2.23649 13.4479 3.61405 13.4479C6.06124 13.4479 7.69811 12.2106 7.69811 10.4849C7.66571 9.3778 7.03366 8.59634 6.1747 8.07537Z" fill="#111111"/>
<path d="M35.5093 15.0759L35.8011 14.213L38.0862 7.37525C38.7183 5.5193 39.6258 3.92383 39.6258 3.92383H35.6714C36.2548 4.52621 37.7135 6.51243 37.3083 7.76601L36.9193 8.93822L35.9631 11.8036L33.2242 3.92383H30.4529L34.537 15.6945C34.229 16.2481 33.8239 16.6551 33.3539 16.8831C33.4673 16.6714 33.5159 16.4434 33.5159 16.1993C33.5159 15.3853 32.8515 14.7178 32.0411 14.7178C31.2308 14.7178 30.5663 15.3853 30.5663 16.1993C30.5663 16.9807 31.1822 17.6319 31.9439 17.6808C32.1221 17.7133 32.3005 17.7459 32.4787 17.7459C33.7266 17.7459 34.8125 16.8831 35.3959 15.3853L35.4769 15.141C35.5093 15.1248 35.5093 15.0922 35.5093 15.0759Z" fill="#111111"/>
<path d="M82.0381 5.8125C80.5148 5.8125 79.2831 7.04982 79.2831 8.58018C79.2831 12.0479 82.0381 13.4317 82.0381 13.4317H83.4159C83.4159 13.4317 82.1194 12.7805 81.3089 11.2501C81.5357 11.3153 81.7949 11.3478 82.0381 11.3478C83.5614 11.3478 84.7931 10.1105 84.7931 8.58018C84.7931 7.04982 83.5614 5.8125 82.0381 5.8125Z" fill="#111111"/>
<path d="M87.2082 9.06849C87.5327 9.19876 87.8726 9.26387 88.2455 9.26387C89.7688 9.26387 91.0005 8.02655 91.0005 6.49619C91.0005 4.96583 89.7688 3.72852 88.2455 3.72852C86.7222 3.72852 85.4905 4.96583 85.4905 6.49619C85.4905 11.4454 88.9424 13.4316 88.9424 13.4316H90.3201C90.3201 13.4316 88.0835 12.1455 87.2082 9.06849Z" fill="#111111"/>
<path d="M75.8317 13.4143C77.353 13.4143 78.5867 12.1751 78.5867 10.6466C78.5867 9.11803 77.353 7.87891 75.8317 7.87891C74.3099 7.87891 73.0762 9.11803 73.0762 10.6466C73.0762 12.1751 74.3099 13.4143 75.8317 13.4143Z" fill="#111111"/>
</svg>
