<svg width="51" height="40" viewBox="0 0 51 40" fill="none" xmlns="http://www.w3.org/2000/svg">
<g clip-path="url(#clip0_3980_57868)">
<path d="M38.2663 40H48.9197C49.588 40 50.1317 39.4563 50.1317 38.788V20.4103C50.1317 19.742 49.588 19.1983 48.9197 19.1983H38.4573C36.5973 19.1983 35.0843 17.685 35.0843 15.8253V1.212C35.0843 0.543667 34.5407 0 33.8723 0H22.4453C22.0747 0 21.7297 0.166 21.4983 0.455333L0.265 27.029C0.094 27.243 0 27.5117 0 27.7857V38.788C0 39.4563 0.543667 40 1.212 40H12.6383C13.0087 40 13.354 39.834 13.5853 39.5443L26.1287 23.8467C26.5553 23.3127 27.185 23.0063 27.856 23.0063C28.1087 23.0063 28.3603 23.0497 28.6043 23.135C29.5097 23.452 30.0947 24.277 30.0947 25.2363V31.8283C30.0947 36.334 33.7603 39.9997 38.2663 39.9997V40Z" fill="#FBFBFB"/>
</g>
<defs>
<clipPath id="clip0_3980_57868">
<rect width="50.1317" height="40" fill="white"/>
</clipPath>
</defs>
</svg>
