<svg width="71" height="48" viewBox="0 0 71 48" fill="none" xmlns="http://www.w3.org/2000/svg">
<path d="M17.5925 25.138C17.5925 27.5682 16.734 29.6418 15.017 31.3588C13.3 33.0758 11.2264 33.9342 8.79623 33.9342C6.36604 33.9342 4.29245 33.0758 2.57547 31.3588C0.85849 29.6418 0 27.5682 0 25.138C0 22.7078 0.85849 20.6342 2.57547 18.9173C4.29245 17.2003 6.36604 16.3418 8.79623 16.3418C11.2264 16.3418 13.3 17.2003 15.017 18.9173C16.734 20.6342 17.5925 22.7078 17.5925 25.138ZM8.79623 18.8539C7.05811 18.8539 5.57623 19.4667 4.35057 20.6924C3.12491 21.918 2.51208 23.3999 2.51208 25.138C2.51208 26.8761 3.12491 28.358 4.35057 29.5837C5.57623 30.8093 7.05811 31.4222 8.79623 31.4222C10.5343 31.4222 12.0162 30.8093 13.2419 29.5837C14.4675 28.358 15.0804 26.8761 15.0804 25.138C15.0804 23.3999 14.4675 21.918 13.2419 20.6924C12.0162 19.4667 10.5343 18.8539 8.79623 18.8539Z" fill="#111111"/>
<path d="M22.6193 32.6769C22.6193 33.0229 22.4951 33.3188 22.2495 33.5644C22.0038 33.8101 21.7079 33.9342 21.3619 33.9342C21.0159 33.9342 20.72 33.8101 20.4744 33.5644C20.2287 33.3188 20.1046 33.0229 20.1046 32.6769V17.5992C20.1046 17.2531 20.2287 16.9573 20.4744 16.7116C20.72 16.4659 21.0159 16.3418 21.3619 16.3418C21.7079 16.3418 22.0038 16.4659 22.2495 16.7116C22.4951 16.9573 22.6193 17.2531 22.6193 17.5992V17.9293C23.8661 16.8727 25.3321 16.3418 27.0174 16.3418C28.9219 16.3418 30.5517 17.018 31.9015 18.3678C32.1841 18.6505 32.4404 18.949 32.6702 19.2633C32.9 18.949 33.1562 18.6505 33.4389 18.3678C34.7887 17.018 36.4185 16.3418 38.323 16.3418C40.2275 16.3418 41.8574 17.018 43.2072 18.3678C44.5596 19.7176 45.2332 21.3475 45.2332 23.252V32.6769C45.2332 33.0229 45.1091 33.3188 44.8634 33.5644C44.6177 33.8101 44.3219 33.9342 43.9758 33.9342C43.6298 33.9342 43.334 33.8101 43.0883 33.5644C42.8426 33.3188 42.7185 33.0229 42.7185 32.6769V23.252C42.7185 22.0369 42.2879 21.0014 41.4294 20.1429C40.5709 19.2844 39.5328 18.8539 38.3204 18.8539C37.1079 18.8539 36.0698 19.2844 35.2113 20.1429C34.3528 21.0014 33.9223 22.0395 33.9223 23.252V32.6769C33.9223 33.0229 33.7981 33.3188 33.5524 33.5644C33.3068 33.8101 33.0109 33.9342 32.6649 33.9342C32.3189 33.9342 32.023 33.8101 31.7774 33.5644C31.5317 33.3188 31.4075 33.0229 31.4075 32.6769V23.252C31.4075 22.0369 30.977 21.0014 30.1185 20.1429C29.26 19.2844 28.2219 18.8539 27.0094 18.8539C25.797 18.8539 24.7589 19.2844 23.9004 20.1429C23.0419 21.0014 22.6113 22.0395 22.6113 23.252V32.6769H22.6193Z" fill="#111111"/>
<path d="M48.3977 17.5992C48.3977 17.2531 48.5192 16.9573 48.7675 16.7116C49.0132 16.4659 49.309 16.3418 49.6551 16.3418C50.0011 16.3418 50.2969 16.4659 50.5426 16.7116C50.7883 16.9573 50.9124 17.2531 50.9124 17.5992V18.6214C52.4841 17.1026 54.3675 16.3444 56.5679 16.3444C58.7683 16.3444 60.7441 17.1422 62.3396 18.7403C63.9351 20.3384 64.7354 22.2614 64.7354 24.512V32.6795C64.7354 33.0256 64.6113 33.3214 64.3656 33.5671C64.12 33.8127 63.8241 33.9369 63.4781 33.9369C63.132 33.9369 62.8362 33.8127 62.5905 33.5671C62.3449 33.3214 62.2207 33.0256 62.2207 32.6795V24.512C62.2207 22.9509 61.6686 21.6195 60.5645 20.5154C59.4603 19.4112 58.1264 18.8592 56.5679 18.8592C55.0094 18.8592 53.6754 19.4112 52.5713 20.5154C51.4671 21.6195 50.9151 22.9535 50.9151 24.512V32.6795C50.9151 33.0256 50.7909 33.3214 50.5453 33.5671C50.2996 33.8127 50.0037 33.9369 49.6577 33.9369C49.3117 33.9369 49.0158 33.8127 48.7702 33.5671C48.5245 33.3214 48.4003 33.0256 48.4003 32.6795V17.5992H48.3977Z" fill="#111111"/>
<path d="M70.7237 12.571C70.7237 13.0016 70.5705 13.3687 70.2615 13.6778C69.9524 13.9869 69.5826 14.1401 69.1547 14.1401C68.7268 14.1401 68.3569 13.9869 68.0479 13.6778C67.7388 13.3687 67.5856 12.9989 67.5856 12.571C67.5856 12.1431 67.7388 11.7733 68.0479 11.4642C68.3569 11.1552 68.7268 11.002 69.1547 11.002C69.5826 11.002 69.9524 11.1552 70.2615 11.4642C70.5705 11.7733 70.7237 12.1431 70.7237 12.571ZM67.8973 17.5978C67.8973 17.2518 68.0215 16.9559 68.2671 16.7103C68.5128 16.4646 68.8086 16.3404 69.1547 16.3404C69.5007 16.3404 69.7966 16.4646 70.0422 16.7103C70.2879 16.9559 70.412 17.2518 70.412 17.5978V32.6782C70.412 33.0242 70.2879 33.3201 70.0422 33.5657C69.7966 33.8114 69.5007 33.9355 69.1547 33.9355C68.8086 33.9355 68.5128 33.8114 68.2671 33.5657C68.0215 33.3201 67.8973 33.0242 67.8973 32.6782V17.5978Z" fill="#111111"/>
<path d="M16.3377 36.4492C16.6838 36.4492 16.9796 36.5734 17.2253 36.819C17.4709 37.0647 17.5951 37.3605 17.5951 37.7066C17.5951 38.0526 17.4709 38.3485 17.2253 38.5941C16.9796 38.8398 16.6838 38.9639 16.3377 38.9639H1.25736C0.911321 38.9639 0.615472 38.8398 0.369811 38.5941C0.124151 38.3485 0 38.0526 0 37.7066C0 37.3605 0.124151 37.0647 0.369811 36.819C0.615472 36.5734 0.911321 36.4492 1.25736 36.4492H16.3377Z" fill="#111111"/>
</svg>
