<svg width="154" height="48" viewBox="0 0 154 48" fill="none" xmlns="http://www.w3.org/2000/svg">
<path d="M12.1963 12H6.53809V17.6045H12.1963V12Z" fill="#111111"/>
<path d="M34.852 12H29.1938V17.6045H34.852V12Z" fill="#111111"/>
<path d="M17.8544 17.6045H6.53809V23.209H17.8544V17.6045Z" fill="#111111"/>
<path d="M34.8515 17.6045H23.5352V23.209H34.8515V17.6045Z" fill="#111111"/>
<path d="M34.8516 23.1863H6.53809V28.7908H34.8516V23.1863Z" fill="#111111"/>
<path d="M12.1963 28.791H6.53809V34.3955H12.1963V28.791Z" fill="#111111"/>
<path d="M23.5127 28.791H17.8545V34.3955H23.5127V28.791Z" fill="#111111"/>
<path d="M34.852 28.791H29.1938V34.3955H34.852V28.791Z" fill="#111111"/>
<path d="M17.8546 34.3955H0.857422V40H17.8546V34.3955Z" fill="#111111"/>
<path d="M40.5098 34.3955H23.5127V40H40.5098V34.3955Z" fill="#111111"/>
<path d="M12.1963 12H6.53809V17.6045H12.1963V12Z" fill="#111111"/>
<path d="M34.852 12H29.1938V17.6045H34.852V12Z" fill="#111111"/>
<path d="M17.8544 17.6045H6.53809V23.209H17.8544V17.6045Z" fill="#111111"/>
<path d="M34.8515 17.6045H23.5352V23.209H34.8515V17.6045Z" fill="#111111"/>
<path d="M34.8516 23.1863H6.53809V28.7908H34.8516V23.1863Z" fill="#111111"/>
<path d="M12.1963 28.791H6.53809V34.3955H12.1963V28.791Z" fill="#111111"/>
<path d="M23.5127 28.791H17.8545V34.3955H23.5127V28.791Z" fill="#111111"/>
<path d="M34.852 28.791H29.1938V34.3955H34.852V28.791Z" fill="#111111"/>
<path d="M17.8546 34.3955H0.857422V40H17.8546V34.3955Z" fill="#111111"/>
<path d="M40.5098 34.3955H23.5127V40H40.5098V34.3955Z" fill="#111111"/>
<path d="M51.1699 33.8757V17.0396H56.2623L59.3177 28.5198L62.3505 17.0396H67.4654V33.8757H64.2969V20.6328L60.9472 33.8757H57.6655L54.3385 20.6328V33.8757H51.1699Z" fill="#111111"/>
<path d="M70.8149 20.0453V17.0623H74.0514V20.0453H70.8149ZM70.8149 33.8758V21.6724H74.0514V33.8758H70.8149Z" fill="#111111"/>
<path d="M76.2245 30.3955L79.4609 29.8983C79.5967 30.5311 79.8683 31.0056 80.2983 31.322C80.7284 31.6384 81.3168 31.8192 82.0637 31.8192C82.8106 31.8192 83.5348 31.661 83.9422 31.3672C84.2364 31.1638 84.3722 30.8701 84.3722 30.5085C84.3722 30.1469 84.3043 30.0565 84.1459 29.8983C83.9875 29.7401 83.6253 29.6045 83.0595 29.4689C80.4568 28.9039 78.8046 28.3616 78.103 27.887C77.1298 27.2316 76.6545 26.3051 76.6545 25.1525C76.6545 24 77.0619 23.209 77.8993 22.4859C78.7367 21.7627 80.0268 21.4011 81.7921 21.4011C83.5575 21.4011 84.7117 21.6723 85.5265 22.2147C86.3413 22.7571 86.9071 23.5706 87.2013 24.6328L84.1459 25.1977C84.0101 24.7232 83.7611 24.3616 83.399 24.113C83.0369 23.8644 82.5163 23.7288 81.8374 23.7288C81.1584 23.7288 80.3662 23.8418 80.0041 24.0904C79.7552 24.2486 79.642 24.4746 79.642 24.7458C79.642 25.0169 79.7552 25.1751 79.9589 25.3333C80.2531 25.5367 81.2489 25.8531 82.969 26.2373C84.6891 26.6215 85.8886 27.096 86.5676 27.6836C87.2466 28.2486 87.5861 29.0621 87.5861 30.0791C87.5861 31.096 87.1108 32.1582 86.1828 32.9717C85.2549 33.7853 83.8743 34.1695 82.0411 34.1695C80.2078 34.1695 79.0535 33.8305 78.0803 33.1525C77.1071 32.4746 76.4734 31.5706 76.1792 30.4181L76.2245 30.3955Z" fill="#111111"/>
<path d="M96.0505 21.695V24.2713H93.8325V29.1979C93.8325 30.1922 93.8325 30.7798 93.9004 30.938C93.9456 31.0962 94.0361 31.2318 94.1946 31.3448C94.353 31.4578 94.5341 31.503 94.7378 31.503C94.9415 31.503 95.462 31.39 96.0278 31.1866L96.2994 33.695C95.5525 34.0114 94.6925 34.1696 93.7419 34.1696C92.7913 34.1696 92.6329 34.0792 92.1576 33.8758C91.6823 33.6724 91.3429 33.4239 91.1392 33.1075C90.9355 32.7911 90.777 32.3843 90.6865 31.8419C90.6186 31.4578 90.5733 30.712 90.5733 29.5595V24.2487H89.0796V21.6724H90.5733V19.2544L93.8098 17.3787V21.695H96.0278H96.0505Z" fill="#111111"/>
<path d="M101.392 33.8757H98.1553V21.6723H101.165V23.4124C101.686 22.5989 102.139 22.0565 102.546 21.7853C102.953 21.5141 103.429 21.4011 103.949 21.4011C104.47 21.4011 105.398 21.6045 106.077 22.0113L105.081 24.8362C104.538 24.4746 104.04 24.3164 103.564 24.3164C103.089 24.3164 102.727 24.452 102.41 24.7006C102.093 24.9491 101.844 25.4011 101.663 26.0565C101.482 26.7119 101.392 28.0678 101.392 30.1469V33.9209V33.8757Z" fill="#111111"/>
<path d="M109.879 25.4011L106.937 24.8813C107.276 23.7062 107.842 22.8249 108.634 22.2599C109.449 21.6949 110.626 21.4011 112.233 21.4011C113.84 21.4011 114.745 21.5819 115.447 21.9209C116.148 22.2599 116.646 22.6893 116.941 23.209C117.235 23.7288 117.371 24.7006 117.371 26.1017L117.325 29.8757C117.325 30.9378 117.371 31.7288 117.484 32.2486C117.597 32.7684 117.778 33.3107 118.072 33.8757H114.881C114.791 33.6723 114.7 33.3333 114.564 32.9265C114.519 32.7458 114.474 32.6102 114.451 32.5424C113.908 33.0847 113.319 33.4915 112.686 33.7401C112.052 33.9887 111.396 34.1469 110.671 34.1469C109.404 34.1469 108.431 33.8079 107.706 33.1299C106.982 32.452 106.62 31.5932 106.62 30.5537C106.62 29.5141 106.779 29.2429 107.118 28.7006C107.458 28.1582 107.91 27.7514 108.499 27.4576C109.087 27.1638 109.947 26.9152 111.079 26.7119C112.595 26.4181 113.636 26.1695 114.225 25.9209V25.6045C114.225 24.9943 114.066 24.5424 113.772 24.2712C113.455 24 112.889 23.8644 112.029 23.8644C111.169 23.8644 111.011 23.9774 110.694 24.2034C110.377 24.4294 110.106 24.8362 109.902 25.4011H109.879ZM114.202 28.0226C113.795 28.1582 113.138 28.3164 112.233 28.5198C111.328 28.7006 110.739 28.9039 110.468 29.0847C110.038 29.3785 109.834 29.7627 109.834 30.2147C109.834 30.6667 109.992 31.0508 110.332 31.3898C110.671 31.7288 111.101 31.887 111.622 31.887C112.142 31.887 112.754 31.7062 113.297 31.322C113.682 31.0282 113.953 30.6667 114.066 30.2599C114.157 29.9887 114.202 29.4689 114.202 28.678V28.0452V28.0226Z" fill="#111111"/>
<path d="M120.562 33.8757V17.0396H123.798V33.8757H120.562Z" fill="#111111"/>
<path d="M148.015 33.8757H144.303L142.832 30.0565H136.088L134.707 33.8757H131.086L137.649 17.0396H141.248L147.993 33.8757H148.015ZM141.746 27.2316L139.415 20.9944L137.129 27.2316H141.723H141.746Z" fill="#111111"/>
<path d="M149.712 33.8757V17.0396H153.107V33.8757H149.712Z" fill="#111111"/>
</svg>
