<svg width="128" height="48" viewBox="0 0 128 48" fill="none" xmlns="http://www.w3.org/2000/svg">
<g clip-path="url(#clip0_37_13582)">
<path fill-rule="evenodd" clip-rule="evenodd" d="M13.3008 33.5125C13.3008 33.9121 12.9754 34.2354 12.5741 34.2354C12.173 34.2354 11.8473 33.9121 11.8473 33.5125C11.8473 29.5814 8.63113 26.3833 4.67811 26.3833C4.27703 26.3833 3.95163 26.0599 3.95163 25.6607C3.95163 25.2615 4.27703 24.9381 4.67811 24.9381C8.63113 24.9381 11.8473 21.7397 11.8473 17.8085C11.8473 17.4096 12.173 17.086 12.5741 17.086C12.9754 17.086 13.3008 17.4096 13.3008 17.8085C13.3008 21.7397 16.5167 24.9381 20.4695 24.9381H24.9447C24.5669 18.4279 19.123 13.2461 12.4838 13.2461C5.60022 13.2461 0 18.8154 0 25.6607C0 32.5063 5.60022 38.0753 12.4838 38.0753C19.123 38.0753 24.5669 32.8937 24.9447 26.3833H20.4695C16.5167 26.3833 13.3008 29.5814 13.3008 33.5125Z" fill="#111111"/>
<path fill-rule="evenodd" clip-rule="evenodd" d="M100.112 21.3433C100.112 20.2145 99.7919 19.3895 99.1512 18.8685C98.5112 18.3478 97.5987 18.0873 96.4153 18.0873H95.4604V25.1718H96.3791C97.5625 25.1718 98.4813 24.8658 99.1339 24.2533C99.7857 23.6414 100.112 22.6712 100.112 21.3433ZM108.461 33.9264H101.975C101.841 33.9264 101.714 33.8575 101.64 33.7464C100.558 32.1129 99.6545 30.8055 98.9289 29.8235C98.1766 28.806 97.2406 27.6289 96.1224 26.2934H95.4596V31.4339C95.4596 31.7199 95.5138 31.9626 95.6229 32.1612C95.7313 32.3601 95.9386 32.5271 96.2449 32.6625C96.398 32.726 96.6375 32.7918 96.9642 32.8591L97.4864 32.9671C97.6709 33.0057 97.8036 33.1666 97.8036 33.353V33.9264H88.1816V33.3713C88.1816 33.1602 88.3418 32.9821 88.5546 32.9579L89.5818 32.895C89.965 32.8511 90.2367 32.7973 90.3977 32.7338C90.7032 32.6067 90.9089 32.4458 91.0141 32.2508C91.1186 32.0558 91.1704 31.8078 91.1704 31.5054V19.5665C91.1704 19.2803 91.1264 19.0417 91.0377 18.8508C90.949 18.66 90.7354 18.4932 90.3977 18.3501C90.1393 18.2469 89.8354 18.1592 89.4852 18.0877L88.9763 17.9836C88.791 17.9456 88.6575 17.7845 88.6575 17.598V17.0024H98.2748C100.425 17.0024 102.057 17.3342 103.173 17.9981C104.289 18.6622 104.847 19.6661 104.847 21.0096C104.847 22.1947 104.502 23.1468 103.814 23.8661C103.125 24.586 102.076 25.1483 100.667 25.5539C101.214 26.2535 101.853 27.0646 102.581 27.9871C103.31 28.9094 104.069 29.8515 104.859 30.8136C105.108 31.1237 105.449 31.5034 105.88 31.9523C106.311 32.4017 106.826 32.678 107.156 32.7812C107.342 32.8372 107.698 32.885 107.984 32.9246L108.099 32.9408C108.307 32.9698 108.461 33.1455 108.461 33.3527V33.9264Z" fill="#111111"/>
<path fill-rule="evenodd" clip-rule="evenodd" d="M51.7375 29.1354C50.9555 30.3634 50.0889 31.2803 49.1377 31.8864C48.1862 32.4926 47.3043 32.9314 46.0881 32.9314C45.254 32.9314 44.5516 32.7733 43.8653 32.4898C43.1788 32.206 42.5231 31.7056 42.0172 31.0999C41.6156 30.6189 41.3389 30.0552 41.1067 29.4788C40.8664 28.8821 40.721 28.244 40.3446 27.7097C40.0071 27.2301 39.5634 26.8192 39.0486 26.5216C38.7389 26.3424 38.4036 26.2048 38.0535 26.1185C37.733 26.0397 37.3944 26.0153 37.0499 26.0136C36.8339 26.0128 36.6312 25.893 36.5751 25.7021C36.4903 25.4125 36.7261 25.1515 37.0277 25.1515C37.0418 25.1515 37.0558 25.1515 37.0698 25.1515C37.9899 25.1437 38.8884 24.7889 39.5942 24.2099C40.9935 23.0623 40.8241 21.1972 41.7176 19.7728C42.4214 18.6495 43.811 17.7901 45.4442 17.7901C46.7558 17.7901 47.8678 18.2337 48.7797 19.1206C49.6485 19.9653 50.3992 21.2666 51.0314 23.0246C51.0885 23.1829 51.2415 23.2923 51.4151 23.2923H52.2736V17.0963H51.1692C51.0734 17.0963 50.981 17.1291 50.9076 17.1884L50.1031 17.8939C49.8212 17.7477 48.9313 17.0775 47.5947 16.6469C46.0397 16.1462 44.5457 16.099 43.1967 16.3018C40.7745 16.6661 38.2181 18.234 36.8449 20.3312C35.7788 21.9585 35.2422 23.5716 35.2422 25.7546C35.2422 29.2211 37.3325 31.5094 38.0843 32.2065C38.8091 32.8787 40.1614 33.8649 41.3445 34.2682C42.527 34.6713 43.6742 34.8497 45.031 34.8497C46.1618 34.8497 47.1491 34.5537 47.9644 34.2611C51.0272 33.1606 52.4369 30.7779 52.7822 30.2256C52.8993 30.0384 52.8424 29.7945 52.65 29.6799L51.7375 29.1354Z" fill="#111111"/>
<path fill-rule="evenodd" clip-rule="evenodd" d="M68.3751 29.7447C68.5103 29.2496 68.598 28.9183 68.598 28.9183C68.612 28.6913 68.4302 28.5 68.2012 28.5H67.3592C67.1021 29.1125 66.1144 31.5395 65.7195 31.9551C65.3425 32.3513 64.8076 32.4855 64.2913 32.5976C63.6466 32.7377 63.0052 32.845 62.3425 32.8395C61.777 32.8354 61.084 32.8129 60.6037 32.4836C60.3947 32.3404 60.2544 32.1179 60.1821 31.8156C60.1099 31.5134 60.0735 31.1001 60.0735 30.575V19.4475C60.0735 19.1693 60.1258 18.9207 60.2304 18.7021C60.3346 18.4835 60.5435 18.3224 60.8563 18.2192C61.1132 18.1398 61.4165 18.078 61.7655 18.0341L62.3268 17.9642C62.5257 17.9393 62.6747 17.772 62.6747 17.5733V17.0024H53.2939V17.5955C53.2939 17.7842 53.4289 17.9462 53.6157 17.9823L54.1311 18.0818C54.4804 18.1495 54.7792 18.2391 55.0282 18.3504C55.3655 18.5013 55.5781 18.6705 55.6663 18.8572C55.7545 19.0442 55.799 19.2805 55.799 19.5668V31.5057C55.799 31.8156 55.7425 32.0702 55.6301 32.2689C55.5178 32.4675 55.3173 32.6229 55.0282 32.7338C54.9078 32.7815 54.6588 32.8314 54.2818 32.883C54.0519 32.9147 53.8401 32.9408 53.6465 32.9621C53.4446 32.984 53.2939 33.1518 53.2939 33.353V33.9266H63.3987H64.4174H66.9438L68.3751 29.7447Z" fill="#111111"/>
<path fill-rule="evenodd" clip-rule="evenodd" d="M74.6748 27.1737L77.1115 21.1412L79.5845 27.1737H74.6748ZM88.0702 32.9568L87.7569 32.8902C87.4592 32.8275 87.1985 32.7334 86.9739 32.6077C86.6771 32.4355 86.4478 32.2533 86.2876 32.061C86.1274 31.869 85.9947 31.6551 85.8903 31.4199C85.2644 29.9774 84.5058 28.1584 83.6145 25.9627C82.9871 24.4175 81.1213 19.9091 80.3062 17.9403C80.4679 17.8887 80.5842 17.745 80.5842 17.5716V17.001H79.4738H78.4493H77.5091C76.377 19.6669 75.3434 22.1053 74.4082 24.3163C73.473 26.5272 72.5397 28.7346 71.6084 30.9377C71.4558 31.3142 71.265 31.6396 71.0365 31.914C70.8074 32.1883 70.5284 32.4197 70.1996 32.6077C70.0069 32.7257 69.7439 32.8178 69.4109 32.884L68.833 32.9992C68.647 33.0361 68.5137 33.1979 68.5137 33.3854V33.9252H75.5221L75.5218 33.364C75.5218 33.1643 75.3692 32.9951 75.1689 32.9732C74.4454 32.8941 73.9155 32.7781 73.5789 32.6252C73.1898 32.4491 72.9954 32.2355 72.9954 31.9844C72.9954 31.9062 73.0095 31.7689 73.0377 31.5728C73.0657 31.3769 73.1556 31.0592 73.3072 30.6202C73.4271 30.2831 73.5685 29.8989 73.7321 29.4678C73.8959 29.0367 74.0455 28.66 74.1813 28.3385H80.08L81.5383 31.7964C81.5948 31.9298 81.6286 32.0355 81.6403 32.114C81.6529 32.1922 81.6592 32.263 81.6592 32.3254C81.6592 32.5063 81.3663 32.6571 80.7813 32.7784C80.3462 32.8688 79.9536 32.9345 79.6026 32.9748C79.4031 32.9978 79.2555 33.1659 79.2555 33.3646V33.9252H88.3843V33.3418C88.3843 33.1559 88.2539 32.9953 88.0702 32.9568Z" fill="#111111"/>
<path fill-rule="evenodd" clip-rule="evenodd" d="M114.266 27.1737L116.702 21.1412L119.175 27.1737H114.266ZM127.661 32.9568L127.348 32.8902C127.05 32.8275 126.789 32.7334 126.565 32.6077C126.268 32.4355 126.039 32.2533 125.878 32.061C125.718 31.869 125.586 31.6551 125.481 31.4199C124.855 29.9774 124.097 28.1584 123.205 25.9627C122.578 24.4175 120.713 19.9091 119.898 17.9403C120.059 17.8887 120.175 17.745 120.175 17.5716V17.001H119.065H118.04H117.1C115.967 19.6669 114.934 22.1053 113.999 24.3163C113.064 26.5272 112.131 28.7346 111.199 30.9377C111.047 31.3142 110.856 31.6396 110.628 31.914C110.398 32.1883 110.12 32.4197 109.79 32.6077C109.598 32.7257 109.335 32.8178 109.001 32.884L108.424 32.9992C108.238 33.0361 108.104 33.1979 108.104 33.3854V33.9252H115.113V33.364C115.113 33.1643 114.96 32.9951 114.76 32.9732C114.036 32.8941 113.506 32.7781 113.17 32.6252C112.781 32.4491 112.587 32.2355 112.587 31.9844C112.587 31.9062 112.6 31.7689 112.628 31.5728C112.657 31.3769 112.746 31.0592 112.899 30.6202C113.018 30.2831 113.159 29.8989 113.323 29.4678C113.487 29.0367 113.636 28.66 113.772 28.3385H119.671L121.129 31.7964C121.186 31.9298 121.219 32.0355 121.232 32.114C121.244 32.1922 121.25 32.263 121.25 32.3254C121.25 32.5063 120.957 32.6571 120.372 32.7784C119.937 32.8688 119.544 32.9345 119.193 32.9748C118.994 32.9978 118.846 33.1659 118.846 33.3646V33.9252H127.975V33.3418C127.975 33.1559 127.845 32.9953 127.661 32.9568Z" fill="#111111"/>
</g>
<defs>
<clipPath id="clip0_37_13582">
<rect width="128" height="26" fill="white" transform="translate(0 13)"/>
</clipPath>
</defs>
</svg>
