<svg width="106" height="49" viewBox="0 0 106 49" fill="none" xmlns="http://www.w3.org/2000/svg">
<g clip-path="url(#clip0_324_14042)">
<path d="M14.9395 10.75C23.1316 10.7502 29.7722 17.448 29.7725 25.709C29.7725 33.9718 23.1317 40.6697 14.9395 40.6699C6.74783 40.6699 0.106445 33.972 0.106445 25.709C0.1067 17.4479 6.74798 10.75 14.9395 10.75ZM7.24609 33.8135C8.85364 35.3694 10.8891 36.4014 13.0859 36.7744V33.8135H7.24609ZM16.793 36.7744C22.0551 35.885 26.0643 31.2687 26.0645 25.71C26.0645 20.1502 22.0552 15.5348 16.793 14.6445V36.7744ZM3.96875 27.5811C4.11119 28.4372 4.35297 29.274 4.6875 30.0742H13.0859V27.5811H3.96875ZM4.68652 21.3467C4.352 22.1469 4.11021 22.9838 3.96777 23.8408H13.0859V21.3467H4.68652ZM13.0859 14.6445C10.8875 15.0175 8.85266 16.0497 7.24512 17.6064H13.0859V14.6445Z" fill="#111111"/>
<path d="M44.9326 15.0264C46.4114 15.0264 47.6552 15.2762 48.6514 15.791C49.6418 16.3026 50.3886 17.0129 50.8818 17.9209C51.3701 18.8208 51.6132 19.8275 51.6133 20.9365C51.6133 21.9929 51.3789 22.9728 50.9102 23.8711L50.9092 23.873C50.4338 24.7633 49.6963 25.4809 48.709 26.0273L48.7061 26.0293C47.709 26.5636 46.4456 26.8222 44.9326 26.8223H41.7793V33.96H37.9668V15.0264H44.9326ZM42.2285 23.4893H45.1748C46.3069 23.4892 47.0574 23.2381 47.4912 22.7979C47.9551 22.3268 48.1973 21.6827 48.1973 20.8379C48.1972 19.9746 47.9538 19.3344 47.4932 18.8828L47.4912 18.8789L47.4883 18.876C47.0545 18.4203 46.3052 18.1621 45.1748 18.1621H42.2285V23.4893Z" fill="#111111"/>
<path d="M55.5181 39.2964L58.5029 32.6316H57.9404L52.7295 19.9399H56.8701L60.3147 28.7202L63.9075 19.9399H67.9757L59.5879 39.2964H55.5181Z" fill="#111111"/>
<path d="M68.79 34.2669V14.8066H72.6026V34.2669H68.79Z" fill="#111111"/>
<path d="M81.1035 20.1416C82.3708 20.1416 83.5215 20.4407 84.5479 21.0439C85.5897 21.6456 86.4073 22.4861 86.999 23.5596C87.6111 24.6209 87.9131 25.8494 87.9131 27.2383C87.913 28.627 87.6111 29.8641 86.999 30.9424C86.4065 31.9988 85.5879 32.8302 84.5469 33.4326C83.5043 34.0342 82.3461 34.3339 81.0781 34.334C79.793 34.334 78.6256 34.0349 77.583 33.4326L77.5811 33.4316C76.5572 32.8301 75.7397 32.0001 75.1309 30.9453L75.1289 30.9404C74.5356 29.863 74.2413 28.6262 74.2412 27.2383C74.2412 25.8494 74.5443 24.619 75.1572 23.5576C75.7652 22.4857 76.5827 21.6464 77.6074 21.0439L77.6084 21.043C78.651 20.4406 79.8184 20.1417 81.1035 20.1416ZM81.1436 23.6455C80.3314 23.6455 79.6329 23.9496 79.0371 24.5713C78.4747 25.1575 78.1719 26.0593 78.1719 27.3232C78.1719 28.5841 78.4739 29.4959 79.0371 30.1016C79.6328 30.7054 80.3229 31.0009 81.1172 31.001C81.9124 31.001 82.6034 30.7044 83.1992 30.0996C83.7796 29.4939 84.0889 28.5832 84.0889 27.3232C84.0888 26.0611 83.7789 25.1604 83.2012 24.5742L83.1982 24.5713C82.6001 23.9472 81.9182 23.6456 81.1436 23.6455Z" fill="#111111"/>
<path d="M89.6533 34.0178V20.457H93.0483L93.251 22.1816C93.6327 21.6497 94.117 21.2005 94.6746 20.8624L94.677 20.8608C95.4812 20.3784 96.4173 20.1416 97.4746 20.1416C99.1229 20.1416 100.433 20.6711 101.37 21.7535C102.306 22.8343 102.754 24.3951 102.754 26.3946V34.0178H98.9422V26.7108C98.9422 25.6154 98.7216 24.8167 98.317 24.2792C97.9263 23.7603 97.3094 23.4813 96.4116 23.4813C95.5431 23.4813 94.8406 23.7878 94.2847 24.4008C93.7483 25.0089 93.4651 25.8732 93.4651 27.027V34.0178H89.6533Z" fill="#111111"/>
</g>
<defs>
<clipPath id="clip0_324_14042">
<rect width="105" height="30" fill="white" transform="translate(0.106445 10.75)"/>
</clipPath>
</defs>
</svg>
