<svg width="129" height="12" viewBox="0 0 129 12" fill="none" xmlns="http://www.w3.org/2000/svg">
<path d="M64.8624 11.9993V9.42824H75.6356V7.24985H67.2225L64.3281 5.12624V2.12361L67.2225 0H77.5365V2.571H67.0315V4.67885H75.4447L78.3382 6.8017V9.8764L75.4447 11.9993H64.8624Z" fill="#111111"/>
<path d="M29.7805 11.9993L24.4945 3.28413L19.1998 11.9993H16.0781L23.3645 0H25.6157L32.9021 11.9993H29.7805Z" fill="#111111"/>
<path d="M37.9663 11.9993V2.571H32.3125V0H46.3225V2.571H40.6689V11.9993H37.9663Z" fill="#111111"/>
<path d="M86.6777 11.9993V2.571H81.0234V0H95.0344V2.571H89.3809V11.9993H86.6777Z" fill="#111111"/>
<path d="M0.3125 11.9993V0H11.4291L14.3233 2.12361V9.8764L11.4291 12L0.3125 11.9993ZM11.62 9.42824V2.571H3.01509V9.42824H11.62Z" fill="#111111"/>
<path d="M112.789 11.9993L116.432 6L112.789 0H115.911L119.555 6L115.911 11.9993H112.789Z" fill="#111111"/>
<path d="M125.88 11.9993L122.234 6L125.88 0H129.001L125.358 6L129.001 11.9993H125.88Z" fill="#111111"/>
<path d="M59.4453 11.9993L54.1505 3.28413L48.8637 11.9993H45.7422L53.0285 0H55.2797L62.5661 11.9993H59.4453Z" fill="#111111"/>
<path d="M108.148 11.9993L102.853 3.28413L97.5669 11.9993H94.4453L101.732 0H103.983L111.269 11.9993H108.148Z" fill="#111111"/>
</svg>
