<svg width="132" height="32" viewBox="0 0 132 32" fill="none" xmlns="http://www.w3.org/2000/svg">
<path d="M27.9291 4.66128C21.6766 -1.56438 11.5656 -1.55162 5.32688 4.68681C-0.911793 10.9252 -0.922593 21.0359 5.30135 27.2881C9.3397 31.3459 15.2387 32.9345 20.7694 31.4578C26.3002 29.9812 30.6203 25.6612 32.098 20.1297C33.5757 14.5992 31.9851 8.70143 27.9281 4.66226H27.9291V4.66128ZM29.6581 14.5216L22.7694 8.26944L15.7247 14.9271L12.0202 18.4076V13.2187L17.6324 7.88653L21.8229 3.92787C26.1421 5.80215 29.1318 9.8423 29.6601 14.5216H29.6581ZM29.5354 18.2947C29.2899 19.6702 28.8245 20.9967 28.1578 22.2239L24.2334 18.6442V13.4573L29.5354 18.2957V18.2947ZM18.6221 3.00202L15.6579 5.80313L12.0094 9.26303V3.68536C14.1203 2.89402 16.3992 2.65839 18.627 3.00104H18.6221V3.00202ZM9.13941 18.5038L3.70094 13.6223C3.95622 12.2232 4.43929 10.8742 5.13051 9.62924L9.13941 13.2276V18.5028V18.5038ZM9.13941 5.19735V9.35434L6.80358 7.26013C7.49677 6.47959 8.28029 5.78349 9.13842 5.18753V5.19735H9.13941ZM3.5625 17.3522L10.6102 23.6731L21.3526 13.5624V18.6619L11.4468 28.0353C7.08243 26.159 4.06815 22.0757 3.5625 17.3522ZM14.6476 28.9552L21.3556 22.6137V28.2159C19.8455 28.802 18.2402 29.1015 16.6191 29.1005C15.9584 29.1005 15.2986 29.0514 14.6456 28.9542H14.6476V28.9552ZM24.2285 26.6686V22.5214L26.5152 24.592C25.8377 25.3696 25.0729 26.0765 24.2344 26.6676H24.2285V26.6686Z" fill="#111111"/>
<path d="M77.2764 9.86297C77.2686 8.87585 76.463 8.08304 75.479 8.09082C74.7836 8.09703 74.1534 8.50743 73.8678 9.14167C70.1333 6.96534 65.3434 8.23228 63.1703 11.9725C60.9973 15.7127 62.2623 20.5099 65.9968 22.6863C68.429 24.104 71.434 24.104 73.8663 22.6863C74.2714 23.5848 75.3284 23.9859 76.2255 23.5801C76.8604 23.2925 77.2701 22.6629 77.2748 21.9665V9.86297H77.2764ZM69.9533 20.1742C67.6033 20.1804 65.691 18.2776 65.6848 15.9241C65.6786 13.5705 67.5785 11.6553 69.9284 11.6491C71.5163 11.6445 72.9753 12.5259 73.7126 13.9358V17.8843C72.9815 19.2865 71.5334 20.1679 69.9548 20.1726L69.9533 20.1742ZM129.122 23.7418C128.137 23.7418 127.34 22.9428 127.34 21.9572V9.86297C127.341 8.87585 128.142 8.07838 129.128 8.07993C129.438 8.07993 129.744 8.16232 130.012 8.31777C130.563 8.63645 130.902 9.22562 130.903 9.86297V21.9572C130.903 22.9428 130.106 23.7418 129.122 23.7418ZM107.303 9.86297C107.295 8.87585 106.49 8.08304 105.505 8.09082C104.81 8.09703 104.18 8.50743 103.894 9.14167C100.16 6.96534 95.3699 8.23228 93.1968 11.9725C91.0238 15.7127 92.2888 20.5099 96.0233 22.6863C98.4556 24.104 101.461 24.104 103.893 22.6863C104.298 23.5848 105.355 23.9859 106.252 23.5801C106.887 23.2925 107.297 22.6629 107.301 21.9665V9.86297H107.303ZM99.9689 20.1742C97.6189 20.1742 95.7129 18.2667 95.7113 15.9132C95.7113 13.5596 97.6158 11.6507 99.9658 11.6491C101.551 11.6491 103.005 12.5305 103.739 13.9374V17.8859C103.005 19.2927 101.552 20.1742 99.9674 20.1742H99.9689ZM117.31 8.07683C115.99 8.07527 114.693 8.41105 113.555 9.0484V3.24535C113.552 2.26134 112.756 1.46387 111.773 1.46387C110.791 1.46387 109.993 2.26134 109.991 3.24535V21.9541C109.999 22.9412 110.805 23.734 111.789 23.7262C112.484 23.72 113.114 23.3096 113.4 22.6754C116.245 24.3325 119.819 24.0263 122.343 21.9121C124.867 19.798 125.786 16.3283 124.69 13.2301C123.594 10.1319 120.628 8.07061 117.336 8.05817L117.31 8.07683ZM117.31 20.171C115.725 20.171 114.272 19.2896 113.538 17.8828V13.9343C114.627 11.8481 117.199 11.0429 119.282 12.1341C121.365 13.2254 122.169 15.8013 121.08 17.8874C120.346 19.2927 118.891 20.1742 117.307 20.1742H117.308L117.31 20.171Z" fill="#111111"/>
<path d="M129.124 6.00263C130.495 6.00263 131.606 4.88975 131.606 3.51694C131.606 2.14413 130.495 1.03125 129.124 1.03125C127.754 1.03125 126.643 2.14413 126.643 3.51694C126.643 4.88975 127.754 6.00263 129.124 6.00263Z" fill="#111111"/>
<path d="M60.5939 7.93303C59.7107 7.57859 58.7034 7.9237 58.2207 8.74294C58.1353 8.88906 58.0716 9.04607 58.0297 9.20929C57.9552 9.52331 57.873 9.83111 57.7348 10.1498L54.6864 17.3581L51.5293 9.93059C51.2515 9.27614 50.5902 8.8331 49.898 8.8331C49.1886 8.83465 48.5476 9.25748 48.2667 9.91039L45.0366 17.3861L42.0208 10.1964C41.8919 9.90728 41.791 9.6057 41.7196 9.29635C41.5629 8.56261 40.9575 8.00143 40.2172 7.86463C39.4768 7.72783 38.7255 8.04029 38.3018 8.66055C37.8781 9.2808 37.8594 10.0954 38.2552 10.7374C38.4508 11.0328 38.62 11.3452 38.7597 11.6717L43.3603 22.6482C43.635 23.3104 44.2776 23.7441 44.9916 23.7503H45.0164C45.7258 23.7488 46.3668 23.326 46.6478 22.6731L49.9026 15.1383L53.0877 22.6606C53.3655 23.3182 54.0081 23.7457 54.719 23.7472C55.4345 23.741 56.0771 23.3073 56.3503 22.6451L60.9742 11.6841C61.1247 11.3421 61.3017 11.0125 61.5035 10.6985C61.5531 10.6208 61.5966 10.5338 61.6338 10.4483C61.831 9.98189 61.8325 9.45491 61.6401 8.98389C61.4476 8.51287 61.0766 8.14289 60.6079 7.95013L60.5923 7.93458L60.5939 7.93303ZM85.4734 14.1294C85.0745 14.0983 83.0862 13.8946 83.0862 13.0039C83.0862 11.7789 84.4164 11.6452 84.9876 11.6452C86.1797 11.6452 86.709 12.1147 86.8254 12.194C87.5006 12.9122 88.629 12.9479 89.3461 12.2717C89.9949 11.6608 90.0942 10.6628 89.5789 9.93526C89.4268 9.74716 88.019 8.08226 84.983 8.08226C81.7638 8.08226 79.5194 10.1094 79.5194 13.0086C79.5194 14.0003 79.926 17.2757 85.1894 17.6784C85.9143 17.7359 87.1296 17.9799 87.1296 18.9608C87.1296 20.1516 85.0699 20.1625 84.9814 20.1625C83.3501 20.1625 82.4002 19.5298 82.2434 19.4148C81.919 19.1241 81.4984 18.9639 81.0638 18.9639C80.3079 18.9639 79.6342 19.4427 79.3843 20.1578C79.136 20.8729 79.3642 21.6673 79.9555 22.1398C80.1464 22.3031 81.9159 23.7068 84.9876 23.7068C86.1967 23.7161 87.3873 23.413 88.4303 22.8285C89.8397 22.0512 90.7073 20.5604 90.6903 18.95C90.6903 16.2622 88.6336 14.361 85.4595 14.1107L85.475 14.1263L85.4734 14.1294Z" fill="#111111"/>
</svg>
