<svg width="84" height="28" viewBox="0 0 84 28" fill="none" xmlns="http://www.w3.org/2000/svg">
<g clip-path="url(#clip0_3793_111476)">
<path fill-rule="evenodd" clip-rule="evenodd" d="M34.8477 13.9173V0.248535H38.3271V7.34107C39.6017 6.4724 41.1417 5.96456 42.8004 5.96456C47.1927 5.96456 50.7531 9.52512 50.7531 13.9173C50.7531 18.3095 47.1927 21.87 42.8004 21.87C38.4084 21.87 34.8477 18.3095 34.8477 13.9173ZM42.8004 18.3907C40.33 18.3907 38.3271 16.3879 38.3271 13.9173C38.3271 11.4467 40.33 9.44389 42.8004 9.44389C45.2711 9.44389 47.274 11.4467 47.274 13.9173C47.274 16.3879 45.2711 18.3907 42.8004 18.3907Z" fill="#111111"/>
<path fill-rule="evenodd" clip-rule="evenodd" d="M29.6292 20.4936V21.6216H33.1087V13.9173C33.1087 9.52516 29.548 5.9646 25.1559 5.9646C20.7637 5.9646 17.2031 9.52516 17.2031 13.9173C17.2031 18.3095 20.7637 21.8701 25.1559 21.8701C26.8146 21.8701 28.3546 21.3622 29.6292 20.4936ZM20.6824 13.9173C20.6824 11.4468 22.6853 9.44393 25.1559 9.44393C27.6264 9.44393 29.6292 11.4468 29.6292 13.9173C29.6292 16.3879 27.6264 18.3908 25.1559 18.3908C22.6853 18.3908 20.6824 16.3879 20.6824 13.9173Z" fill="#111111"/>
<path d="M8.00743 9.44393C5.53682 9.44393 3.534 11.4468 3.534 13.9173C3.534 16.3879 5.53682 18.3908 8.00743 18.3908C9.86098 18.3908 11.4512 17.2634 12.13 15.657H15.7693C14.9759 19.2125 11.802 21.8701 8.00743 21.8701C3.61525 21.8701 0.0546875 18.3095 0.0546875 13.9173C0.0546875 9.52516 3.61525 5.9646 8.00743 5.9646C11.802 5.9646 14.9759 8.62222 15.7693 12.1777H12.13C11.4512 10.5712 9.86098 9.44393 8.00743 9.44393Z" fill="#111111"/>
<path d="M52.7412 6.21313V21.6216H56.2206V6.21313H52.7412Z" fill="#111111"/>
<path d="M68.8368 0.514273C68.0955 0.183738 67.2745 0 66.4103 0C63.1162 0 60.4458 2.67043 60.4458 5.96455V6.21375L58.209 6.21392V9.69325H60.4458V21.6215H63.9252V9.69325H68.3985L73.2997 20.7016L72.3302 22.8797C71.7719 24.1336 70.3028 24.6975 69.049 24.1392L67.6338 27.3178C70.643 28.6576 74.1687 27.3042 75.5085 24.2949L83.5591 6.21308H79.7506L75.204 16.4246L71.5771 8.27811C71.0005 6.98315 69.7301 6.21384 68.3985 6.21308L63.9252 6.21345V5.96455C63.9252 4.592 65.0378 3.47931 66.4103 3.47931C66.7703 3.47931 67.1125 3.55588 67.4215 3.69357L68.8368 0.514273Z" fill="#111111"/>
<path d="M56.4697 1.98818C56.4697 3.08622 55.5794 3.97637 54.4814 3.97637C53.3835 3.97637 52.4932 3.08622 52.4932 1.98818C52.4932 0.89014 53.3835 0 54.4814 0C55.5794 0 56.4697 0.89014 56.4697 1.98818Z" fill="#111111"/>
</g>
<defs>
<clipPath id="clip0_3793_111476">
<rect width="83.5044" height="28" fill="white" transform="translate(0.0546875)"/>
</clipPath>
</defs>
</svg>
