<svg width="132" height="49" viewBox="0 0 132 49" fill="none" xmlns="http://www.w3.org/2000/svg">
<path d="M27.6047 15.0363C21.3523 8.81062 11.2413 8.82338 5.00263 15.0618C-1.236 21.3002 -1.2468 31.4109 4.9771 37.6631C9.01543 41.7209 14.9143 43.3095 20.4451 41.8328C25.9758 40.3562 30.2959 36.0362 31.7736 30.5047C33.2512 24.9742 31.6607 19.0764 27.6037 15.0373H27.6047V15.0363ZM29.3337 24.8966L22.4451 18.6444L15.4004 25.3021L11.6959 28.7826V23.5937L17.3081 18.2615L21.4986 14.3029C25.8177 16.1771 28.8074 20.2173 29.3357 24.8966H29.3337ZM29.211 28.6697C28.9655 30.0452 28.5001 31.3717 27.8334 32.5989L23.909 29.0192V23.8323L29.211 28.6707V28.6697ZM18.2978 13.377L15.3336 16.1781L11.6851 19.638V14.0604C13.796 13.269 16.0749 13.0334 18.3027 13.376H18.2978V13.377ZM8.81513 28.8788L3.3767 23.9973C3.63198 22.5982 4.11505 21.2492 4.80626 20.0042L8.81513 23.6026V28.8778V28.8788ZM8.81513 15.5723V19.7293L6.47932 17.6351C7.17251 16.8546 7.95602 16.1585 8.81415 15.5625V15.5723H8.81513ZM3.23826 27.7272L10.2859 34.0481L21.0283 23.9374V29.0369L11.1225 38.4103C6.75817 36.534 3.74391 32.4507 3.23826 27.7272ZM14.3233 39.3302L21.0312 32.9887V38.5909C19.5212 39.177 17.9158 39.4765 16.2948 39.4755C15.634 39.4755 14.9742 39.4264 14.3213 39.3292H14.3233V39.3302ZM23.9041 37.0436V32.8964L26.1908 34.967C25.5133 35.7446 24.7485 36.4515 23.91 37.0426H23.9041V37.0436Z" fill="#111111"/>
<path d="M76.9511 20.2375C76.9433 19.2504 76.1377 18.4576 75.1537 18.4653C74.4583 18.4715 73.8281 18.8819 73.5425 19.5162C69.8081 17.3398 65.0181 18.6068 62.8451 22.347C60.6721 26.0872 61.9371 30.8844 65.6716 33.0608C68.1038 34.4785 71.1088 34.4785 73.541 33.0608C73.9461 33.9593 75.0031 34.3604 75.9002 33.9546C76.5351 33.667 76.9448 33.0375 76.9495 32.341V20.2375H76.9511ZM69.628 30.5487C67.2781 30.5549 65.3658 28.6521 65.3596 26.2986C65.3534 23.945 67.2532 22.0299 69.6032 22.0236C71.191 22.019 72.6501 22.9004 73.3873 24.3103V28.2588C72.6563 29.661 71.2081 30.5424 69.6296 30.5471L69.628 30.5487ZM128.796 34.1163C127.812 34.1163 127.014 33.3173 127.014 32.3317V20.2375C127.016 19.2504 127.816 18.4529 128.802 18.4544C129.113 18.4544 129.418 18.5368 129.687 18.6923C130.238 19.011 130.576 19.6001 130.578 20.2375V32.3317C130.578 33.3173 129.78 34.1163 128.796 34.1163ZM106.977 20.2375C106.97 19.2504 106.164 18.4576 105.18 18.4653C104.485 18.4715 103.854 18.8819 103.569 19.5162C99.8344 17.3398 95.0444 18.6068 92.8714 22.347C90.6984 26.0872 91.9634 30.8844 95.6979 33.0608C98.1301 34.4785 101.135 34.4785 103.567 33.0608C103.972 33.9593 105.029 34.3604 105.927 33.9546C106.561 33.667 106.971 33.0375 106.976 32.341V20.2375H106.977ZM99.6435 30.5487C97.2935 30.5487 95.3875 28.6413 95.3859 26.2877C95.3859 23.9342 97.2904 22.0252 99.6404 22.0236C101.225 22.0236 102.679 22.9051 103.414 24.3119V28.2604C102.679 29.6672 101.227 30.5487 99.6419 30.5487H99.6435ZM116.984 18.4513C115.665 18.4498 114.367 18.7856 113.229 19.4229V13.6199C113.226 12.6359 112.43 11.8384 111.448 11.8384C110.465 11.8384 109.667 12.6359 109.666 13.6199V32.3286C109.673 33.3157 110.479 34.1085 111.463 34.1008C112.158 34.0945 112.789 33.6841 113.074 33.0499C115.919 34.707 119.494 34.4008 122.018 32.2866C124.541 30.1725 125.46 26.7028 124.365 23.6046C123.269 20.5064 120.303 18.4451 117.01 18.4327L116.984 18.4513ZM116.984 30.5456C115.399 30.5456 113.947 29.6641 113.212 28.2573V24.3088C114.302 22.2226 116.874 21.4174 118.957 22.5086C121.04 23.5999 121.844 26.1758 120.754 28.262C120.02 29.6672 118.566 30.5487 116.981 30.5487H116.982L116.984 30.5456Z" fill="#111111"/>
<path d="M128.8 16.3776C130.171 16.3776 131.282 15.2647 131.282 13.8919C131.282 12.5191 130.171 11.4062 128.8 11.4062C127.43 11.4062 126.318 12.5191 126.318 13.8919C126.318 15.2647 127.43 16.3776 128.8 16.3776Z" fill="#111111"/>
<path d="M60.2686 18.308C59.3854 17.9536 58.378 18.2987 57.8953 19.1179C57.81 19.2641 57.7463 19.4211 57.7044 19.5843C57.6299 19.8983 57.5476 20.2061 57.4095 20.5248L54.3611 27.7331L51.204 20.3056C50.9262 19.6511 50.265 19.2081 49.5727 19.2081C48.8634 19.2097 48.2223 19.6325 47.9414 20.2854L44.7114 27.7611L41.6955 20.5714C41.5667 20.2823 41.4658 19.9807 41.3944 19.6713C41.2377 18.9376 40.6323 18.3764 39.892 18.2396C39.1516 18.1028 38.4003 18.4153 37.9766 19.0355C37.5529 19.6558 37.5342 20.4704 37.93 21.1124C38.1256 21.4078 38.2948 21.7202 38.4345 22.0467L43.0351 33.0232C43.3098 33.6854 43.9524 34.1191 44.6664 34.1253H44.6912C45.4005 34.1238 46.0416 33.701 46.3225 33.0481L49.5774 25.5133L52.7624 33.0356C53.0402 33.6932 53.6828 34.1207 54.3937 34.1222C55.1092 34.116 55.7518 33.6823 56.025 33.0201L60.6488 22.0591C60.7994 21.7171 60.9763 21.3875 61.1781 21.0735C61.2278 20.9958 61.2712 20.9088 61.3085 20.8233C61.5056 20.3569 61.5072 19.8299 61.3147 19.3589C61.1222 18.8879 60.7513 18.5179 60.2825 18.3251L60.267 18.3096L60.2686 18.308ZM85.1479 24.5044C84.749 24.4733 82.7607 24.2696 82.7607 23.3789C82.7607 22.1539 84.0909 22.0202 84.6621 22.0202C85.8542 22.0202 86.3834 22.4897 86.4999 22.569C87.175 23.2872 88.3034 23.3229 89.0205 22.6467C89.6693 22.0358 89.7687 21.0378 89.2534 20.3103C89.1013 20.1222 87.6935 18.4573 84.6575 18.4573C81.4383 18.4573 79.1939 20.4844 79.1939 23.3836C79.1939 24.3753 79.6006 27.6507 84.8639 28.0534C85.5887 28.1109 86.8041 28.3549 86.8041 29.3358C86.8041 30.5266 84.7444 30.5375 84.6559 30.5375C83.0246 30.5375 82.0747 29.9048 81.9179 29.7898C81.5935 29.4991 81.1729 29.3389 80.7383 29.3389C79.9824 29.3389 79.3088 29.8177 79.0589 30.5328C78.8105 31.2479 79.0387 32.0423 79.63 32.5148C79.821 32.6781 81.5904 34.0818 84.6621 34.0818C85.8712 34.0911 87.0617 33.788 88.1048 33.2035C89.5141 32.4262 90.3818 30.9354 90.3647 29.325C90.3647 26.6372 88.3081 24.736 85.134 24.4857L85.1495 24.5013L85.1479 24.5044Z" fill="#111111"/>
</svg>
