<svg width="109" height="49" viewBox="0 0 109 49" fill="none" xmlns="http://www.w3.org/2000/svg">
<g clip-path="url(#clip0_4331_228757)">
<path d="M24.3164 46.125C12.1664 46.125 2.31641 36.275 2.31641 24.125C2.31641 11.975 12.1664 2.125 24.3164 2.125M12.9824 37.721C5.48541 31.431 4.50841 20.256 10.7984 12.759C17.0884 5.262 28.2644 4.285 35.7614 10.575M17.9814 36.015C11.4194 32.551 8.90741 24.421 12.3714 17.859C15.8364 11.295 23.9644 8.784 30.5284 12.249M24.3164 33.282C21.888 33.282 19.559 32.3173 17.8418 30.6001C16.1246 28.8829 15.1599 26.554 15.1599 24.1255C15.1599 21.697 16.1246 19.3681 17.8418 17.6509C19.559 15.9337 21.888 14.969 24.3164 14.969" stroke="#111111" stroke-width="3.085" stroke-miterlimit="10"/>
<path d="M27.1459 21.5649C26.8178 21.2117 26.4398 20.9085 26.0239 20.6649C25.6612 20.4493 25.2478 20.3337 24.8259 20.3299C24.2659 20.3299 23.7639 20.4329 23.3229 20.6379C22.8799 20.8449 22.5029 21.1179 22.1879 21.4619C21.8728 21.8044 21.6296 22.2067 21.4729 22.6449C21.3119 23.0899 21.23 23.5596 21.2309 24.0329C21.2309 24.5129 21.3119 24.9769 21.4729 25.4219C21.6359 25.8679 21.8729 26.2619 22.1879 26.6049C22.5029 26.9479 22.8809 27.2219 23.3229 27.4289C23.7639 27.6339 24.2659 27.7369 24.8259 27.7369C25.3019 27.7369 25.7439 27.6369 26.1519 27.4409C26.5636 27.2405 26.9218 26.945 27.1969 26.5789L29.2369 28.7909C28.9309 29.0989 28.5769 29.3659 28.1779 29.5889C27.4372 30.0015 26.6311 30.284 25.7949 30.4239C25.4209 30.4839 25.0979 30.5139 24.8259 30.5139C23.9383 30.5194 23.0572 30.3628 22.2259 30.0519C21.4396 29.7613 20.7201 29.3147 20.1109 28.7389C19.5058 28.1602 19.0245 27.4649 18.6959 26.6949C18.3469 25.8969 18.1719 25.0109 18.1719 24.0329C18.1719 23.0569 18.3469 22.1689 18.6959 21.3719C19.0243 20.6015 19.5057 19.9058 20.1109 19.3269C20.7206 18.7519 21.4399 18.3057 22.2259 18.0149C23.0572 17.7037 23.9383 17.5467 24.8259 17.5519C25.6069 17.5519 26.3939 17.7029 27.1839 18.0019C27.9802 18.3059 28.6926 18.7954 29.2619 19.4299L27.1459 21.5649Z" fill="#111111"/>
<path d="M38.2597 22.7992C38.2437 21.8892 37.9617 21.1752 37.4177 20.6512C36.8737 20.1292 36.1187 19.8672 35.1507 19.8672C34.2327 19.8672 33.5047 20.1332 32.9707 20.6642C32.4347 21.1962 32.1077 21.9072 31.9887 22.7992H38.2597ZM31.9887 25.1132C32.0897 26.0392 32.4477 26.7592 33.0597 27.2732C33.6707 27.7882 34.4097 28.0462 35.2767 28.0462C36.0417 28.0462 36.6827 27.8872 37.2017 27.5692C37.7213 27.2518 38.1827 26.8476 38.5657 26.3742L40.7587 28.0462C40.0447 28.9362 39.2447 29.5722 38.3617 29.9482C37.4832 30.3242 36.5372 30.5169 35.5817 30.5142C34.6941 30.5191 33.813 30.3622 32.9817 30.0512C32.1954 29.7611 31.4759 29.3148 30.8667 28.7392C30.2624 28.1599 29.7811 27.4647 29.4517 26.6952C29.1037 25.8982 28.9297 25.0112 28.9297 24.0332C28.9297 23.0562 29.1037 22.1692 29.4527 21.3712C29.7819 20.6018 30.2629 19.9066 30.8667 19.3272C31.4768 18.7523 32.1965 18.3061 32.9827 18.0152C33.814 17.7042 34.6951 17.5473 35.5827 17.5522C36.4327 17.5522 37.2107 17.7022 37.9147 18.0022C38.6207 18.3022 39.2247 18.7362 39.7247 19.3022C40.2267 19.8672 40.6177 20.5652 40.8977 21.3972C41.1787 22.2302 41.3177 23.1842 41.3177 24.2642V25.1142L31.9887 25.1132ZM42.6447 17.8612H45.7037V19.8152H45.7537C46.0937 19.0952 46.5797 18.5392 47.2087 18.1432C47.8357 17.7492 48.5587 17.5532 49.3747 17.5532C49.5607 17.5532 49.7447 17.5692 49.9227 17.6032C50.1007 17.6372 50.2827 17.6812 50.4707 17.7332V20.7152C50.2226 20.6483 49.9717 20.5926 49.7187 20.5482C49.4787 20.5055 49.2354 20.4837 48.9917 20.4832C48.2787 20.4832 47.7057 20.6162 47.2717 20.8832C46.8387 21.1492 46.5077 21.4532 46.2777 21.7952C46.0477 22.1392 45.8947 22.4812 45.8187 22.8252C45.7417 23.1672 45.7037 23.4252 45.7037 23.5952V30.2052H42.6447V17.8612ZM59.7987 22.7992C59.7807 21.8892 59.5007 21.1752 58.9567 20.6512C58.4137 20.1292 57.6577 19.8672 56.6897 19.8672C55.7717 19.8672 55.0437 20.1332 54.5097 20.6642C53.9737 21.1962 53.6467 21.9072 53.5277 22.7992H59.7987ZM53.5287 25.1132C53.6287 26.0392 53.9867 26.7592 54.5987 27.2732C55.2097 27.7882 55.9487 28.0462 56.8157 28.0462C57.5807 28.0462 58.2217 27.8872 58.7407 27.5692C59.2603 27.2517 59.7216 26.8475 60.1047 26.3742L62.2977 28.0462C61.5837 28.9362 60.7837 29.5722 59.9007 29.9482C59.0223 30.3242 58.0762 30.5169 57.1207 30.5142C56.2334 30.5191 55.3527 30.3622 54.5217 30.0512C53.735 29.7612 53.0152 29.3149 52.4057 28.7392C51.8017 28.1599 51.3208 27.4647 50.9917 26.6952C50.6427 25.8982 50.4687 25.0112 50.4687 24.0332C50.4687 23.0562 50.6427 22.1692 50.9917 21.3712C51.3397 20.5742 51.8117 19.8922 52.4057 19.3272C53.0158 18.7523 53.7355 18.3061 54.5217 18.0152C55.353 17.704 56.2341 17.5471 57.1217 17.5522C57.9717 17.5522 58.7497 17.7022 59.4537 18.0022C60.1597 18.3022 60.7637 18.7362 61.2637 19.3022C61.7647 19.8672 62.1567 20.5652 62.4367 21.3972C62.7187 22.2302 62.8577 23.1842 62.8577 24.2642V25.1142H53.5277L53.5287 25.1132ZM73.8227 24.0332C73.8227 23.5532 73.7417 23.0902 73.5807 22.6452C73.4177 22.1982 73.1807 21.8052 72.8667 21.4612C72.5463 21.1148 72.1605 20.8351 71.7317 20.6382C71.2897 20.4332 70.7887 20.3302 70.2277 20.3302C69.6677 20.3302 69.1667 20.4332 68.7237 20.6382C68.2967 20.8315 67.913 21.1088 67.5955 21.4536C67.278 21.7984 67.0332 22.2037 66.8757 22.6452C66.714 23.09 66.6321 23.5599 66.6337 24.0332C66.6337 24.5132 66.7137 24.9762 66.8757 25.4232C67.033 25.8645 67.2778 26.2695 67.5953 26.614C67.9129 26.9586 68.2966 27.2355 68.7237 27.4282C69.1667 27.6332 69.6667 27.7372 70.2277 27.7372C70.7457 27.7455 71.2592 27.6396 71.7317 27.4272C72.1581 27.2335 72.5414 26.9563 72.8589 26.6119C73.1763 26.2675 73.4214 25.863 73.5797 25.4222C73.7417 24.9762 73.8227 24.5132 73.8227 24.0322V24.0332ZM63.6757 10.7632H66.7357V19.4292H66.8127C66.9647 19.2242 67.1597 19.0152 67.3977 18.8002C67.6367 18.5862 67.9257 18.3842 68.2647 18.1962C68.6047 18.0062 68.9947 17.8522 69.4377 17.7332C69.8787 17.6132 70.3897 17.5532 70.9677 17.5532C71.8337 17.5532 72.6317 17.7192 73.3637 18.0532C74.0772 18.3761 74.7153 18.8448 75.2367 19.4292C75.7557 20.0122 76.1587 20.6992 76.4467 21.4882C76.7367 22.2762 76.8807 23.1242 76.8807 24.0332C76.8807 24.9422 76.7457 25.7912 76.4727 26.5802C76.2178 27.3403 75.8101 28.0403 75.2747 28.6372C74.7415 29.2251 74.0904 29.694 73.3637 30.0132C72.6157 30.3472 71.7737 30.5152 70.8397 30.5152C70.0049 30.5214 69.1787 30.3457 68.4187 30.0002C67.6687 29.6572 67.0747 29.1092 66.6337 28.3532H66.5837V30.2052H63.6757V10.7632ZM78.2037 17.8612H81.2617V19.8152H81.3127C81.6527 19.0952 82.1387 18.5392 82.7667 18.1432C83.3947 17.7492 84.1187 17.5532 84.9337 17.5532C85.1197 17.5532 85.3037 17.5692 85.4807 17.6032C85.6597 17.6372 85.8417 17.6812 86.0307 17.7332V20.7152C85.782 20.6482 85.5304 20.5925 85.2767 20.5482C85.037 20.5055 84.7941 20.4838 84.5507 20.4832C83.8367 20.4832 83.2637 20.6162 82.8307 20.8832C82.3967 21.1492 82.0657 21.4532 81.8367 21.7952C81.6067 22.1392 81.4537 22.4812 81.3767 22.8252C81.3007 23.1672 81.2627 23.4252 81.2627 23.5952V30.2052H78.2027L78.2037 17.8612ZM94.0587 24.6762H93.4217C92.9967 24.6762 92.5217 24.6942 91.9937 24.7282C91.49 24.7588 90.9908 24.8405 90.5037 24.9722C90.0357 25.1022 89.6397 25.2902 89.3177 25.5382C88.9947 25.7872 88.8327 26.1342 88.8327 26.5792C88.8327 26.8712 88.8967 27.1152 89.0237 27.3122C89.1517 27.5102 89.3177 27.6772 89.5207 27.8142C89.7247 27.9512 89.9547 28.0502 90.2097 28.1092C90.4657 28.1702 90.7197 28.1992 90.9747 28.1992C92.0287 28.1992 92.8047 27.9472 93.3077 27.4412C93.8077 26.9352 94.0587 26.2442 94.0587 25.3712V24.6762ZM94.2387 28.5092H94.1607C93.7197 29.2122 93.1577 29.7222 92.4787 30.0392C91.7753 30.3611 91.0093 30.5233 90.2357 30.5142C89.6793 30.5148 89.1256 30.4374 88.5907 30.2842C88.077 30.1397 87.5933 29.9043 87.1627 29.5892C86.7471 29.281 86.4038 28.8858 86.1567 28.4312C85.9017 27.9692 85.7737 27.4282 85.7737 26.8112C85.7737 26.1412 85.8937 25.5732 86.1317 25.1012C86.3597 24.6415 86.6856 24.2373 87.0867 23.9172C87.4867 23.6002 87.9487 23.3472 88.4767 23.1592C89.0109 22.9686 89.5611 22.8264 90.1207 22.7342C90.6897 22.6412 91.2637 22.5802 91.8407 22.5542C92.3847 22.5296 92.9291 22.517 93.4737 22.5162H94.2377V22.1822C94.2377 21.4102 93.9737 20.8322 93.4467 20.4462C92.9207 20.0602 92.2487 19.8672 91.4337 19.8672C90.2204 19.8574 89.0506 20.3188 88.1707 21.1542L86.5647 19.5322C87.2254 18.8422 88.0429 18.3218 88.9477 18.0152C89.8549 17.7071 90.8066 17.5507 91.7647 17.5522C92.6317 17.5522 93.3617 17.6522 93.9577 17.8482C94.5517 18.0462 95.0437 18.2992 95.4357 18.6072C95.8257 18.9152 96.1277 19.2712 96.3407 19.6742C96.5527 20.0782 96.7057 20.4842 96.8007 20.8962C96.8927 21.3072 96.9477 21.7062 96.9647 22.0922C96.9827 22.4772 96.9907 22.8172 96.9907 23.1072V30.2062H94.2377L94.2387 28.5092ZM105.279 21.2812C104.685 20.4412 103.885 20.0212 102.883 20.0212C102.475 20.0212 102.076 20.1242 101.685 20.3292C101.294 20.5362 101.099 20.8692 101.099 21.3322C101.099 21.7102 101.26 21.9852 101.583 22.1562C101.906 22.3272 102.313 22.4732 102.806 22.5932C103.299 22.7132 103.83 22.8372 104.4 22.9662C104.969 23.0942 105.5 23.2922 105.993 23.5562C106.486 23.8232 106.894 24.1862 107.216 24.6512C107.539 25.1132 107.7 25.7472 107.7 26.5532C107.7 27.2912 107.543 27.9132 107.229 28.4182C106.922 28.9156 106.503 29.3341 106.006 29.6402C105.483 29.9572 104.909 30.1831 104.311 30.3082C103.691 30.4443 103.058 30.5134 102.424 30.5142C101.473 30.5142 100.597 30.3772 99.7977 30.1032C98.9987 29.8282 98.2857 29.3312 97.6567 28.6112L99.6967 26.6812C100.087 27.1282 100.508 27.4912 100.958 27.7762C101.408 28.0582 101.957 28.1992 102.602 28.1992C102.824 28.1992 103.053 28.1742 103.29 28.1222C103.529 28.0712 103.749 27.9852 103.953 27.8642C104.157 27.7452 104.323 27.5962 104.45 27.4162C104.578 27.2362 104.642 27.0262 104.642 26.7842C104.642 26.3572 104.481 26.0392 104.157 25.8342C103.834 25.6282 103.427 25.4612 102.934 25.3312C102.406 25.1952 101.875 25.0752 101.341 24.9712C100.787 24.8652 100.251 24.6835 99.7467 24.4312C99.2607 24.1888 98.841 23.8319 98.5237 23.3912C98.2007 22.9452 98.0397 22.3272 98.0397 21.5392C98.0397 20.8532 98.1787 20.2572 98.4597 19.7512C98.7397 19.2452 99.1097 18.8302 99.5677 18.5042C100.046 18.1692 100.582 17.9251 101.149 17.7842C101.74 17.63 102.348 17.552 102.959 17.5522C103.774 17.5522 104.582 17.6942 105.381 17.9772C106.162 18.2471 106.84 18.7548 107.319 19.4292L105.279 21.2812Z" fill="#111111"/>
</g>
<defs>
<clipPath id="clip0_4331_228757">
<rect width="108" height="48" fill="white" transform="translate(0.316406 0.125)"/>
</clipPath>
</defs>
</svg>
