<svg width="178" height="48" viewBox="0 0 178 48" fill="none" xmlns="http://www.w3.org/2000/svg">
<g clip-path="url(#clip0_7334_80369)">
<path d="M17.9979 32.9539C15.9739 31.7862 13.4842 31.7862 11.4604 32.9539L6.78879 35.6491C3.85076 37.3442 0.185547 35.2155 0.185547 31.814L0.185548 17.186C0.185548 13.7845 3.85076 11.6558 6.78879 13.3508L11.4604 16.0461C13.4843 17.2138 15.974 17.2138 17.9979 16.0461L22.6694 13.3509C25.6075 11.6558 29.2727 13.7845 29.2727 17.186V31.814C29.2727 35.2155 25.6075 37.3443 22.6694 35.6491L17.9979 32.9539Z" fill="#111111"/>
<path d="M175.038 25.4472C175.03 24.2434 174.769 23.3274 174.256 22.6994C173.744 22.0626 173.026 21.7442 172.105 21.7442C171.514 21.7442 170.958 21.9318 170.437 22.3068C169.915 22.682 169.494 23.1922 169.172 23.8378C168.859 24.4832 168.703 25.1898 168.703 25.9575V33.9522H165.966V25.4472C165.966 24.2434 165.704 23.3274 165.183 22.6994C164.67 22.0626 163.949 21.7442 163.019 21.7442C162.428 21.7442 161.868 21.9318 161.338 22.3068C160.816 22.682 160.394 23.1922 160.073 23.8378C159.76 24.4832 159.604 25.1898 159.604 25.9575V33.9522H156.814V19.4674H159.604V20.8937C160.707 19.7422 162.024 19.1665 163.554 19.1665C165.335 19.1665 166.67 19.956 167.556 21.5348C168.129 20.7759 168.82 20.1915 169.628 19.7815C170.445 19.3715 171.323 19.1665 172.262 19.1665C173.261 19.1665 174.187 19.4151 175.038 19.9123C175.89 20.4008 176.564 21.0725 177.059 21.9274C177.563 22.7822 177.815 23.7287 177.815 24.7668V33.9522H175.051L175.038 25.4472Z" fill="#111111"/>
<path d="M148.521 33.9522C147.27 33.9522 146.157 33.6818 145.184 33.141C144.219 32.6002 143.467 31.8412 142.929 30.8642C142.399 29.8786 142.134 28.7532 142.134 27.4884V19.1665H144.872V27.1351C144.872 27.9987 145.019 28.7532 145.315 29.3988C145.619 30.0356 146.044 30.5284 146.592 30.8774C147.14 31.2176 147.778 31.3876 148.509 31.3876C149.247 31.3876 149.89 31.2176 150.437 30.8774C150.994 30.5284 151.42 30.0356 151.715 29.3988C152.019 28.7532 152.172 27.9987 152.172 27.1351V19.1665H154.909V27.4884C154.909 28.762 154.644 29.8872 154.114 30.8642C153.584 31.8412 152.832 32.6002 151.859 33.141C150.894 33.6818 149.782 33.9522 148.521 33.9522Z" fill="#111111"/>
<path d="M138.352 33.6775C137.335 33.6775 136.441 33.4682 135.667 33.0495C134.893 32.6221 134.294 32.0202 133.868 31.2438C133.442 30.4587 133.229 29.5428 133.229 28.496V21.7708H130.844V19.2061H133.229V15.8325L135.928 15.8456V19.2061H140.177V21.7708H135.928V28.4306C135.928 29.2767 136.162 29.9266 136.631 30.3802C137.101 30.8338 137.77 31.0606 138.639 31.0606H140.177V33.6775H138.352Z" fill="#111111"/>
<path d="M127.61 25.8528C127.61 24.5007 127.31 23.4801 126.711 22.791C126.12 22.0931 125.264 21.7442 124.143 21.7442C123.448 21.7442 122.805 21.9404 122.213 22.333C121.631 22.7168 121.166 23.2402 120.819 23.9032C120.479 24.5662 120.31 25.2902 120.31 26.0752V33.9522H117.56V19.4674H120.089V21.09C120.645 20.4444 121.279 19.9647 121.992 19.6506C122.713 19.3279 123.53 19.1665 124.442 19.1665C125.529 19.1665 126.524 19.4369 127.428 19.9778C128.331 20.5186 129.044 21.26 129.566 22.2022C130.087 23.1442 130.348 24.191 130.348 25.3425V33.9522H127.61V25.8528Z" fill="#111111"/>
<path d="M103.771 27.8417C103.91 28.5832 104.188 29.2374 104.605 29.8044C105.031 30.3627 105.561 30.7945 106.195 31.0998C106.83 31.4051 107.534 31.5578 108.308 31.5578C109.246 31.5578 110.024 31.392 110.641 31.0605C111.266 30.729 111.796 30.1838 112.231 29.425H115.125C114.43 31.0824 113.517 32.3036 112.388 33.0886C111.266 33.8738 109.906 34.2663 108.308 34.2663C106.934 34.2663 105.687 33.9392 104.566 33.285C103.436 32.622 102.554 31.7148 101.919 30.5633C101.277 29.3944 100.955 28.1121 100.955 26.7164C100.955 25.3032 101.273 24.0253 101.907 22.8826C102.55 21.7136 103.436 20.8021 104.566 20.1478C105.687 19.4936 106.934 19.1665 108.308 19.1665C109.698 19.1665 110.958 19.5024 112.087 20.174C113.226 20.8632 114.091 21.7878 114.682 22.948C115.273 24.0994 115.568 25.3774 115.568 26.7818C115.568 27.0522 115.546 27.4055 115.503 27.8417H103.771ZM108.308 21.8096C107.195 21.8096 106.239 22.1193 105.44 22.7386C104.64 23.358 104.105 24.1954 103.836 25.2509H112.752C112.483 24.1954 111.949 23.358 111.149 22.7386C110.359 22.1193 109.411 21.8096 108.308 21.8096Z" fill="#111111"/>
<path d="M96.5975 25.4472C96.5888 24.2434 96.3278 23.3274 95.8151 22.6994C95.3023 22.0626 94.5857 21.7442 93.6644 21.7442C93.0733 21.7442 92.5167 21.9318 91.9954 22.3068C91.474 22.682 91.0529 23.1922 90.7308 23.8378C90.4179 24.4832 90.2618 25.1898 90.2618 25.9575V33.9522H87.5241V25.4472C87.5241 24.2434 87.2637 23.3274 86.7424 22.6994C86.2296 22.0626 85.5083 21.7442 84.5778 21.7442C83.9874 21.7442 83.4268 21.9318 82.8968 22.3068C82.3747 22.682 81.9536 23.1922 81.6322 23.8378C81.3193 24.4832 81.1626 25.1898 81.1626 25.9575V33.9522H78.373V19.4674H81.1626V20.8937C82.2665 19.7422 83.5829 19.1665 85.1125 19.1665C86.8945 19.1665 88.2281 19.956 89.1148 21.5348C89.688 20.7759 90.3794 20.1915 91.1871 19.7815C92.004 19.3715 92.882 19.1665 93.8205 19.1665C94.8201 19.1665 95.7453 19.4151 96.5975 19.9123C97.4489 20.4008 98.1224 21.0725 98.6179 21.9274C99.122 22.7822 99.3737 23.7287 99.3737 24.7668V33.9522H96.6101L96.5975 25.4472Z" fill="#111111"/>
<path d="M75.405 30.5764C74.7441 31.7366 73.8229 32.6394 72.6413 33.285C71.4677 33.9392 70.1341 34.2663 68.639 34.2663C67.2661 34.2663 66.0017 33.9348 64.8458 33.2718C63.6986 32.6089 62.7861 31.7104 62.1083 30.5764C61.4391 29.4336 61.1045 28.1775 61.1045 26.808C61.1045 25.3076 61.4304 23.986 62.0822 22.8433C62.7427 21.6918 63.6682 20.789 64.8588 20.1348C66.0234 19.4892 67.3186 19.1665 68.7433 19.1665C70.1686 19.1665 71.4638 19.4936 72.6281 20.1478C73.8189 20.7934 74.7441 21.6918 75.405 22.8433C76.0652 24.0035 76.396 25.2945 76.396 26.7164C76.396 28.1296 76.0652 29.4162 75.405 30.5764ZM68.7433 21.7442C67.8486 21.7442 67.0184 21.9623 66.2537 22.3984C65.4889 22.8346 64.8806 23.4278 64.4287 24.178C63.9854 24.9282 63.7639 25.7525 63.7639 26.651C63.7639 28.0205 64.2635 29.2025 65.263 30.197C66.2972 31.235 67.4793 31.754 68.809 31.754C69.7037 31.754 70.5293 31.5272 71.2858 31.0736C72.0416 30.6113 72.6413 29.9963 73.0844 29.2287C73.528 28.4523 73.7492 27.6149 73.7492 26.7164C73.7492 25.8092 73.5234 24.9761 73.0717 24.2172C72.6281 23.4583 72.0197 22.8564 71.2466 22.4115C70.4814 21.9666 69.6472 21.7442 68.7433 21.7442Z" fill="#111111"/>
<path d="M56.7467 25.4472C56.738 24.2434 56.4773 23.3274 55.9645 22.6994C55.4518 22.0626 54.7348 21.7442 53.8136 21.7442C53.2227 21.7442 52.6665 21.9318 52.145 22.3068C51.6236 22.682 51.2021 23.1922 50.8805 23.8378C50.5677 24.4832 50.4113 25.1898 50.4113 25.9575V33.9522H47.6737V25.4472C47.6737 24.2434 47.413 23.3274 46.8915 22.6994C46.3788 22.0626 45.6575 21.7442 44.7276 21.7442C44.1366 21.7442 43.5761 21.9318 43.0459 22.3068C42.5245 22.682 42.103 23.1922 41.7815 23.8378C41.4686 24.4832 41.3121 25.1898 41.3121 25.9575V33.9522H38.5225V19.4674H41.3121V20.8937C42.4159 19.7422 43.7325 19.1665 45.2621 19.1665C47.0436 19.1665 48.3776 19.956 49.2641 21.5348C49.8377 20.7759 50.5286 20.1915 51.3368 19.7815C52.1537 19.3715 53.0315 19.1665 53.9701 19.1665C54.9695 19.1665 55.895 19.4151 56.7467 19.9123C57.5983 20.4008 58.2719 21.0725 58.7672 21.9274C59.2713 22.7822 59.5233 23.7287 59.5233 24.7668V33.9522H56.7598L56.7467 25.4472Z" fill="#111111"/>
</g>
<defs>
<clipPath id="clip0_7334_80369">
<rect width="178" height="24" fill="white" transform="translate(0 12.5)"/>
</clipPath>
</defs>
</svg>
